<svg width="389" height="434" viewBox="0 0 389 434" fill="none" xmlns="http://www.w3.org/2000/svg">
<g filter="url(#filter0_d_904_156)">
<ellipse cx="190" cy="365" rx="124" ry="38" fill="#D4EFFF"/>
</g>
<g filter="url(#filter1_dd_904_156)">
<path fill-rule="evenodd" clip-rule="evenodd" d="M170.231 121.052C160.366 130.742 144.597 137.016 126.828 137.016C106.334 137.016 88.5008 128.67 79.317 116.365C72.7268 119.169 65.249 120.753 57.3228 120.753C30.7872 120.753 9.27588 103.006 9.27588 81.1138C9.27588 59.2217 30.7872 41.4747 57.3228 41.4747C61.5429 41.4747 65.6358 41.9236 69.5354 42.7666C79.3028 25.1461 117.536 12 163.213 12C194.796 12 222.82 18.2851 240.336 27.9887C249.872 21.8324 262.39 18.0977 276.099 18.0977C298.133 18.0977 317.09 27.7444 325.531 41.5869C326.768 41.5126 328.017 41.4747 329.278 41.4747C356.586 41.4747 378.724 59.2217 378.724 81.1138C378.724 103.006 356.586 120.753 329.278 120.753C319.567 120.753 310.511 118.509 302.871 114.633C290.262 127.88 263.587 137.016 232.718 137.016C207.136 137.016 184.434 130.742 170.231 121.052Z" fill="white"/>
</g>
<path d="M156.963 262.548C156.748 265.269 156.041 269.145 152.561 270.953C149.356 272.626 140.111 273.087 130.684 269.754C130.553 269.71 130.423 269.664 130.298 269.615C129.62 269.369 128.942 269.101 128.26 268.812C126.354 268.003 124.733 267.066 123.373 266.057C123.373 266.055 123.369 266.055 123.369 266.055C122 265.033 120.898 263.941 120.049 262.829C119.961 262.715 119.881 262.601 119.803 262.488C117.214 258.867 117.253 255.085 119.399 252.983C122.93 249.517 126.955 249.353 131.522 249.573C136.089 249.791 139.024 251.936 140.22 251.55C141.403 251.17 139.932 250.142 140.329 248.967C140.359 248.883 140.394 248.802 140.442 248.724C140.709 248.239 141.279 247.833 142.113 247.595C143.714 247.139 146.285 247.312 149.571 248.747C150.924 249.339 152.104 250.175 153.096 251.183C153.11 251.197 153.124 251.209 153.135 251.222C155.975 254.133 157.289 258.45 156.963 262.548Z" fill="#9A519F"/>
<path d="M281.803 274.377C280.766 278.936 276.681 287.998 266.14 292.664C260.807 295.027 253.821 296.269 244.738 295.235C217.704 292.162 238.52 261.239 238.52 261.239C238.52 261.239 248.82 254.715 257.373 247.278C261.551 243.641 264.626 240.273 267.281 237.653C270.061 234.906 272.386 232.978 275.05 232.4C280.264 231.268 281.974 239.676 280.099 246.953C278.226 254.227 274.76 258.708 273.516 260.659C272.379 262.446 271.982 263.227 272.452 263.781C272.934 264.35 274.051 263.751 275.271 262.379C277.132 260.283 278.661 259.361 280.68 260.078C283.103 260.945 283.57 266.621 281.803 274.377Z" fill="#9A519F"/>
<path d="M267.796 291.814C267.259 292.104 266.708 292.382 266.131 292.642C260.913 295.024 254.077 296.275 245.188 295.233C242.11 294.874 239.669 294.133 237.756 293.109L236.897 283.115L247.278 272.24C250.217 284.517 257.732 296.97 267.796 291.814Z" fill="#803985"/>
<path d="M181.058 190.094C174.83 193.403 166.84 195.807 161.367 195.603C155.891 195.398 156.004 192.545 153.201 193.117C149.981 193.776 150.431 199.709 153.488 202.001C156.542 204.291 175.201 201.509 175.201 201.509L181.881 194.51L181.058 190.094Z" fill="#5F2A63"/>
<path d="M247.28 272.168C241.974 251.508 225.851 237.79 225.851 237.79L225.935 222.458L226.159 181.595C212.25 180.257 198.553 180.974 184.436 188.48C170.324 195.985 163.937 199.786 155.077 199.375C146.219 198.963 146.419 196.257 143.435 195.574C140.925 194.997 137.976 196.086 138.181 201.944C138.39 207.803 142.063 214.618 151.264 215.1C162.527 215.693 170.309 208.696 170.921 208.138C170.42 208.755 164.608 216.202 163.71 229.325C162.859 241.732 168.216 247.994 176.25 250.74C176.253 250.74 176.254 250.741 176.257 250.743C184.691 253.853 185.614 257.084 185.28 259.748C184.946 262.409 181.221 264.911 172.52 267.018C168.149 267.966 163.562 269.542 159.663 272.532C154.639 276.384 150.007 284.151 148.697 293.564V293.576C148.554 294.562 148.453 295.568 148.395 296.592C148.392 296.653 148.388 296.72 148.383 296.782C148.067 302.578 149.041 308.866 151.918 315.181C159.873 332.651 172.546 338.261 181.035 338.55C184.169 338.655 187.355 337.989 190.719 336.888C190.725 336.888 190.725 336.886 190.726 336.886C196.476 335.012 202.744 331.881 210.163 329.217C221.067 325.289 242.941 319.62 247.945 295.183V295.18C248.344 293.243 248.635 291.187 248.806 289.008C249.27 283.024 248.622 277.376 247.28 272.168Z" fill="#9A519F"/>
<path d="M181.224 201.034C183.956 192.047 192.62 188.156 198.113 188.623C204.545 189.17 211.818 194.714 211.241 205.171C210.666 215.629 201.787 220.54 191.605 219.296C183.938 218.362 178.126 211.224 181.224 201.034Z" fill="#AA61A6"/>
<path d="M248.803 288.919C246.456 318.781 221.675 325.086 209.794 329.344C202.303 332.023 195.974 335.171 190.172 337.053C201.311 332.678 221.63 319.839 225.37 291.71C228.155 270.786 215.027 238.531 212.582 224.483C210.14 210.438 215.663 207.428 215.663 207.428L225.721 222.028L225.636 237.438C225.636 237.438 251.15 259.057 248.803 288.919Z" fill="#AA61A6"/>
<path d="M281.811 274.324C280.785 278.877 276.741 287.929 266.301 292.588C269.49 289.806 271.778 287.685 274.432 280.757C277.089 273.821 275.143 270.02 272.77 270.497C271.008 270.849 267.928 271.539 266.839 269.308C264.954 265.454 268.357 259.523 270.4 249.311C272.439 239.097 269.346 235.823 267.433 237.648C270.183 234.905 272.486 232.977 275.125 232.4C280.289 231.271 281.983 239.669 280.128 246.936C278.27 254.201 274.838 258.675 273.605 260.626C272.482 262.409 272.086 263.19 272.555 263.744C273.029 264.31 274.138 263.711 275.346 262.344C277.187 260.25 278.704 259.327 280.703 260.044C283.099 260.907 283.565 266.576 281.811 274.324Z" fill="#AA61A6"/>
<path d="M226.413 287.989C226.413 287.989 222.764 306.118 196.409 311.652C170.05 317.187 165.008 302.205 169.671 293.332C169.671 293.332 163.01 300.874 167.769 312.848C172.527 324.819 192.03 324.916 209.537 313.753C227.047 302.588 227.1 286.559 227.1 286.559L226.413 287.989Z" fill="#AA61A6"/>
<path d="M143.928 257.193C138.733 257.294 131.739 254.584 125.21 254.877C118.937 255.162 117.936 259.605 119.797 262.444C117.215 258.811 117.255 255.013 119.394 252.904C122.92 249.427 126.932 249.261 131.489 249.48C136.046 249.701 138.973 251.855 140.166 251.468C141.346 251.085 139.878 250.054 140.276 248.875C140.505 248.187 141.279 247.62 142.517 247.388C144.225 247.229 146.112 248.18 147.67 249.832C147.122 250.256 146.923 250.961 147.31 251.855C148.564 254.733 148.326 257.104 143.928 257.193Z" fill="#AA61A6"/>
<path d="M200.723 332.255C200.723 332.255 207.598 335.233 213.938 334.735C220.279 334.241 226.68 325.929 227.095 320.285C227.51 314.641 201.257 328.904 201.257 329.215C201.255 329.526 200.723 332.255 200.723 332.255Z" fill="#5F2A63"/>
<path d="M187.531 364.129C186.556 364.179 185.619 364.195 184.718 364.179C176.382 364.02 171.149 360.938 170.61 356.145C170.217 352.616 173.379 346.679 178.516 346.175C183.971 345.634 190.689 347.938 195.433 352.539C200.175 357.144 197.488 363.588 187.531 364.129Z" fill="#3A2B4D"/>
<path d="M224.38 352.8C224.372 352.803 224.366 352.803 224.36 352.803C224.242 352.814 224.117 352.819 223.993 352.828C223.957 352.828 223.919 352.831 223.889 352.831C215.779 353.223 208.117 351.239 206.985 347.554C205.851 343.855 208.968 339.536 213.932 339.331C219.181 339.113 224.642 341.092 228.601 344.4C232.111 347.337 232.146 352.253 224.38 352.8Z" fill="#3A2B4D"/>
<path d="M198.512 210.477C197.189 210.931 195.568 211.197 193.598 211.197C192.527 211.197 191.54 211.072 190.653 210.85C187.431 210.058 185.447 208.049 185.114 206.427C184.641 204.132 184.399 197.626 190.382 194.428C196.361 191.227 203.192 193.699 203.728 203.539C203.856 205.891 202.636 209.072 198.512 210.477Z" fill="white"/>
<path d="M182.414 179.757C181.342 178.06 181.758 176.35 184.882 173.677C188.005 171.006 190.935 169.226 192.903 169.883C194.869 170.542 195.447 173.523 195.447 174.84C195.447 176.155 195.062 177.007 192.594 177.629C190.126 178.249 188.142 179.118 186.194 180.301C184.514 181.318 183.484 181.448 182.414 179.757Z" fill="#3A3748"/>
<path d="M199.972 172.585C199.917 171.07 200.475 170.278 203.099 170.554C205.721 170.83 207.68 171.672 208.091 172.757C208.486 173.799 208.234 174.685 206.797 174.72C205.362 174.752 203.53 174.822 202.199 174.994C200.871 175.167 200.044 174.547 199.972 172.585Z" fill="#3A3748"/>
<path d="M254.791 217.355C252.987 232.061 244.752 238.639 242.39 237.771C240.03 236.904 241.528 233.592 239.482 230.041C238.115 227.676 236.051 226.256 233.987 225.598C232.955 225.269 231.928 225.127 230.986 225.154C230.986 225.154 232.793 227.595 233.421 230.28C234.053 232.961 234.366 238.243 227.367 240.766C220.364 243.289 215.405 237.219 213.357 228.465C211.316 219.711 209.927 205.381 213.357 192.259C215.161 185.381 220.314 180.552 225.432 181.092C225.567 181.105 225.702 181.123 225.835 181.144C245.718 184.352 256.592 202.649 254.791 217.355Z" fill="#3A2B4D"/>
<path d="M230.058 234.679C228.829 235.297 227.599 235.489 226.334 235.137C224.62 234.653 222.849 233.172 220.955 230.371C220.836 230.195 220.723 230.023 220.613 229.851C220.565 229.77 220.514 229.687 220.452 229.602C220.401 229.522 220.348 229.449 220.301 229.368C216.336 223.07 215.795 217.979 215.795 217.979C217.304 222.678 221.697 224.517 225.428 225.182C226.996 225.462 228.445 225.535 229.512 225.52C229.512 225.52 230.48 227.055 231.066 228.545C231.653 230.037 232.285 233.557 230.058 234.679Z" fill="#ED312E"/>
<path d="M228.308 199.089C229.667 198.619 229.701 196.031 228.464 194.65C226.989 193.005 224.196 194.082 224.973 196.504C225.506 198.177 227.419 199.398 228.308 199.089Z" fill="#201F29"/>
<path d="M230.1 234.653C228.904 235.297 227.706 235.497 226.472 235.13V235.124C229.365 235.911 227.955 229.213 225.593 224.762C227.119 225.052 228.53 225.128 229.569 225.114C229.569 225.114 230.511 226.712 231.078 228.264C231.652 229.817 232.267 233.484 230.1 234.653Z" fill="#201F29"/>
<path d="M162.85 321.815L178.056 332.382C178.056 332.382 197.357 334.528 210.922 322.496C224.488 310.463 225.593 291.872 225.593 291.872C225.593 291.872 220.057 309.794 202.37 317.935C185.167 325.849 167.674 323.284 167.056 307.066C166.699 297.718 169.91 291.81 173.391 287.312C173.391 287.312 156.834 300.928 162.85 321.815Z" fill="#803985"/>
<path d="M204.732 319.42C201.492 320.053 198.318 320.407 195.221 320.519C184.365 323.8 174.339 322.518 169.692 315.815C156.245 310.062 147.714 300.279 148.337 293.342C148.196 294.333 148.094 295.347 148.036 296.375C148.034 296.438 148.03 296.502 148.026 296.564C147.709 302.393 148.681 308.713 151.554 315.062C159.498 332.619 172.155 338.259 180.63 338.549C183.758 338.655 186.941 337.985 190.302 336.882C190.305 336.882 190.305 336.879 190.308 336.879C196.048 334.994 202.309 331.846 209.719 329.167C220.605 325.222 242.448 319.521 247.448 294.957C245.435 302.289 236.243 313.241 204.732 319.42Z" fill="#803985"/>
<path d="M187.717 364.129C186.76 364.179 185.84 364.195 184.956 364.179C187.437 363.962 192.085 362.575 192.263 358.267C192.476 353.149 185.98 345.523 178.868 346.175C184.222 345.634 190.818 347.938 195.475 352.539C200.13 357.144 197.492 363.588 187.717 364.129Z" fill="#281F36"/>
<path d="M224.517 352.88C226.977 352.614 227.455 350.111 226.568 347.734C225.636 345.238 219.792 339.388 214.288 339.331C219.427 339.111 224.773 341.102 228.648 344.43C232.085 347.385 232.119 352.33 224.517 352.88Z" fill="#281F36"/>
<path d="M225.593 225.129C220.865 224.413 219.059 227.118 220.379 229.283C216.345 223.032 215.795 217.979 215.795 217.979C217.33 222.643 221.798 224.468 225.593 225.129Z" fill="#B92426"/>
<path d="M247.448 295.604C242.453 320.009 220.613 325.675 209.73 329.595C202.578 332.168 196.5 335.166 190.925 337.053C197.857 334.219 208.025 328.179 215.581 317.396C238.441 311.1 245.687 301.976 247.448 295.604Z" fill="#9F519E"/>
<path d="M153.244 251.139C151.337 249.295 148.943 249.08 147.874 249.892C146.308 248.265 144.41 247.326 142.693 247.485C144.316 247.183 146.716 247.441 149.71 248.731C151.067 249.315 152.251 250.14 153.244 251.139Z" fill="#9F519E"/>
<path d="M156.963 262.546C156.745 265.268 156.033 269.146 152.524 270.954C149.296 272.626 139.97 273.086 130.468 269.754C130.337 269.709 130.206 269.663 130.08 269.615C129.398 269.368 128.712 269.1 128.025 268.813C126.105 268.004 124.469 267.066 123.098 266.058C130.043 270.697 147.204 270.138 150.145 262.833C152.155 257.825 150.428 252.827 147.686 249.958C148.76 249.136 151.167 249.354 153.082 251.22C152.084 250.208 150.894 249.374 149.53 248.783C146.522 247.478 144.11 247.217 142.478 247.522C142.315 247.538 142.151 247.558 141.989 247.596C143.605 247.138 146.197 247.313 149.51 248.747C150.876 249.338 152.062 250.175 153.062 251.184C153.076 251.198 153.092 251.209 153.103 251.221C155.969 254.132 157.291 258.449 156.963 262.546Z" fill="#803985"/>
<path d="M200.722 204.789C200.722 208.329 197.853 211.197 194.316 211.197C190.779 211.197 187.911 208.329 187.911 204.789C187.911 201.254 190.779 198.385 194.316 198.385C197.853 198.385 200.722 201.254 200.722 204.789Z" fill="#201F29"/>
<path d="M199.215 200.646C199.215 202.31 198.036 203.66 196.579 203.66C195.123 203.66 193.94 202.31 193.94 200.646C193.94 198.981 195.123 197.631 196.579 197.631C198.035 197.631 199.215 198.981 199.215 200.646Z" fill="white"/>
<g filter="url(#filter2_d_904_156)">
<circle cx="8.13792" cy="8.13792" r="8.13792" transform="matrix(0.213246 -0.976998 -0.976998 -0.213246 295.901 200.371)" fill="white" fill-opacity="0.85" shape-rendering="crispEdges"/>
</g>
<g filter="url(#filter3_d_904_156)">
<circle cx="16.1875" cy="16.1875" r="16.1875" transform="matrix(0.213246 -0.976998 -0.976998 -0.213246 318.63 168.535)" fill="white" fill-opacity="0.85" shape-rendering="crispEdges"/>
</g>
<defs>
<filter id="filter0_d_904_156" x="48" y="320" width="286" height="114" filterUnits="userSpaceOnUse" color-interpolation-filters="sRGB">
<feFlood flood-opacity="0" result="BackgroundImageFix"/>
<feColorMatrix in="SourceAlpha" type="matrix" values="0 0 0 0 0 0 0 0 0 0 0 0 0 0 0 0 0 0 127 0" result="hardAlpha"/>
<feOffset dx="1" dy="12"/>
<feGaussianBlur stdDeviation="9.5"/>
<feComposite in2="hardAlpha" operator="out"/>
<feColorMatrix type="matrix" values="0 0 0 0 0 0 0 0 0 0 0 0 0 0 0 0 0 0 0.15 0"/>
<feBlend mode="normal" in2="BackgroundImageFix" result="effect1_dropShadow_904_156"/>
<feBlend mode="normal" in="SourceGraphic" in2="effect1_dropShadow_904_156" result="shape"/>
</filter>
<filter id="filter1_dd_904_156" x="0.275879" y="0" width="388.448" height="149.016" filterUnits="userSpaceOnUse" color-interpolation-filters="sRGB">
<feFlood flood-opacity="0" result="BackgroundImageFix"/>
<feColorMatrix in="SourceAlpha" type="matrix" values="0 0 0 0 0 0 0 0 0 0 0 0 0 0 0 0 0 0 127 0" result="hardAlpha"/>
<feOffset dx="2" dy="4"/>
<feGaussianBlur stdDeviation="4"/>
<feComposite in2="hardAlpha" operator="out"/>
<feColorMatrix type="matrix" values="0 0 0 0 0 0 0 0 0 0 0 0 0 0 0 0 0 0 0.25 0"/>
<feBlend mode="normal" in2="BackgroundImageFix" result="effect1_dropShadow_904_156"/>
<feColorMatrix in="SourceAlpha" type="matrix" values="0 0 0 0 0 0 0 0 0 0 0 0 0 0 0 0 0 0 127 0" result="hardAlpha"/>
<feOffset dy="-3"/>
<feGaussianBlur stdDeviation="4.5"/>
<feComposite in2="hardAlpha" operator="out"/>
<feColorMatrix type="matrix" values="0 0 0 0 0 0 0 0 0 0 0 0 0 0 0 0 0 0 0.25 0"/>
<feBlend mode="normal" in2="effect1_dropShadow_904_156" result="effect2_dropShadow_904_156"/>
<feBlend mode="normal" in="SourceGraphic" in2="effect2_dropShadow_904_156" result="shape"/>
</filter>
<filter id="filter2_d_904_156" x="261.546" y="158.545" width="62.2793" height="62.2793" filterUnits="userSpaceOnUse" color-interpolation-filters="sRGB">
<feFlood flood-opacity="0" result="BackgroundImageFix"/>
<feColorMatrix in="SourceAlpha" type="matrix" values="0 0 0 0 0 0 0 0 0 0 0 0 0 0 0 0 0 0 127 0" result="hardAlpha"/>
<feOffset dx="3" dy="-1"/>
<feGaussianBlur stdDeviation="11.5"/>
<feComposite in2="hardAlpha" operator="out"/>
<feColorMatrix type="matrix" values="0 0 0 0 0 0 0 0 0 0 0 0 0 0 0 0 0 0 0.2 0"/>
<feBlend mode="normal" in2="BackgroundImageFix" result="effect1_dropShadow_904_156"/>
<feBlend mode="normal" in="SourceGraphic" in2="effect1_dropShadow_904_156" result="shape"/>
</filter>
<filter id="filter3_d_904_156" x="270.076" y="114.077" width="78.3818" height="78.3818" filterUnits="userSpaceOnUse" color-interpolation-filters="sRGB">
<feFlood flood-opacity="0" result="BackgroundImageFix"/>
<feColorMatrix in="SourceAlpha" type="matrix" values="0 0 0 0 0 0 0 0 0 0 0 0 0 0 0 0 0 0 127 0" result="hardAlpha"/>
<feOffset dx="3" dy="4"/>
<feGaussianBlur stdDeviation="11.5"/>
<feComposite in2="hardAlpha" operator="out"/>
<feColorMatrix type="matrix" values="0 0 0 0 0 0 0 0 0 0 0 0 0 0 0 0 0 0 0.2 0"/>
<feBlend mode="normal" in2="BackgroundImageFix" result="effect1_dropShadow_904_156"/>
<feBlend mode="normal" in="SourceGraphic" in2="effect1_dropShadow_904_156" result="shape"/>
</filter>
</defs>
</svg>
