<svg width="861" height="697" viewBox="0 0 861 697" fill="none" xmlns="http://www.w3.org/2000/svg">
<g filter="url(#filter0_d_904_155)">
<circle cx="591.942" cy="71.9415" r="47" transform="rotate(-12.3127 591.942 71.9415)" fill="white" fill-opacity="0.85" shape-rendering="crispEdges"/>
</g>
<g filter="url(#filter1_d_904_155)">
<circle cx="766.322" cy="153.313" r="68.3235" transform="rotate(-12.3127 766.322 153.313)" fill="white" fill-opacity="0.85" shape-rendering="crispEdges"/>
</g>
<g filter="url(#filter2_d_904_155)">
<circle cx="456.946" cy="138.934" r="26" transform="rotate(-12.3127 456.946 138.934)" fill="white" fill-opacity="0.85" shape-rendering="crispEdges"/>
</g>
<g filter="url(#filter3_d_904_155)">
<ellipse cx="237.5" cy="597.44" rx="219.5" ry="68.1812" fill="white" fill-opacity="0.85" shape-rendering="crispEdges"/>
</g>
<ellipse cx="272.25" cy="596.12" rx="138.122" ry="37.8296" fill="#1D80B9"/>
<path d="M205.284 392.262C204.849 397.697 203.422 405.442 196.391 409.055C189.916 412.395 171.238 413.318 152.193 406.659C151.929 406.571 151.666 406.479 151.414 406.381C150.044 405.889 148.674 405.353 147.296 404.777C143.446 403.161 140.171 401.287 137.423 399.273C137.423 399.267 137.414 399.267 137.414 399.267C134.649 397.227 132.423 395.044 130.707 392.823C130.529 392.594 130.369 392.368 130.211 392.142C124.98 384.907 125.06 377.352 129.395 373.151C136.529 366.226 144.66 365.9 153.886 366.338C163.112 366.773 169.043 371.06 171.458 370.289C173.848 369.53 170.877 367.475 171.679 365.129C171.739 364.96 171.811 364.799 171.908 364.642C172.447 363.673 173.598 362.863 175.283 362.387C178.518 361.476 183.712 361.822 190.351 364.688C193.084 365.871 195.468 367.541 197.471 369.556C197.5 369.584 197.528 369.607 197.551 369.633C203.287 375.449 205.943 384.073 205.284 392.262Z" fill="#9A519F"/>
<path d="M454.843 415.633C452.783 424.764 444.663 442.912 423.713 452.255C413.115 456.989 399.231 459.476 381.177 457.404C327.45 451.25 368.82 389.322 368.82 389.322C368.82 389.322 389.291 376.257 406.29 361.364C414.594 354.081 420.705 347.336 425.983 342.09C431.507 336.589 436.128 332.727 441.423 331.569C451.786 329.303 455.184 346.141 451.457 360.714C447.735 375.28 440.847 384.254 438.374 388.162C436.114 391.74 435.326 393.305 436.26 394.414C437.217 395.554 439.437 394.353 441.861 391.606C445.56 387.408 448.6 385.563 452.611 386.999C457.428 388.735 458.356 400.101 454.843 415.633Z" fill="#9A519F"/>
<path d="M427.09 450.611C425.998 451.187 424.881 451.74 423.709 452.256C413.11 456.989 399.226 459.476 381.173 457.404C374.921 456.691 369.964 455.218 366.079 453.184L364.334 433.325L385.419 411.716C391.387 436.11 406.65 460.857 427.09 450.611Z" fill="#803985"/>
<path d="M252.654 247.415C240.408 253.89 224.695 258.595 213.934 258.196C203.167 257.795 203.39 252.211 197.877 253.331C191.545 254.621 192.431 266.23 198.442 270.717C204.447 275.198 241.136 269.754 241.136 269.754L254.272 256.056L252.654 247.415Z" fill="#5F2A63"/>
<path d="M385.892 411.602C375.265 370.129 342.972 342.591 342.972 342.591L343.141 311.814L343.588 229.784C315.73 227.1 288.296 228.538 260.023 243.606C231.758 258.671 218.965 266.301 201.218 265.476C183.477 264.651 183.878 259.218 177.902 257.846C172.873 256.688 166.968 258.874 167.378 270.633C167.796 282.395 175.154 296.076 193.583 297.044C216.14 298.233 231.726 284.188 232.953 283.068C231.95 284.306 220.309 299.256 218.509 325.598C216.805 350.505 227.535 363.075 243.625 368.587C243.631 368.587 243.634 368.59 243.64 368.593C260.533 374.836 262.381 381.323 261.713 386.669C261.043 392.013 253.582 397.035 236.156 401.264C227.4 403.167 218.214 406.33 210.404 412.332C200.342 420.065 191.064 435.658 188.44 454.553V454.576C188.153 456.556 187.953 458.576 187.835 460.63C187.829 460.753 187.821 460.888 187.812 461.011C187.179 472.647 189.13 485.271 194.892 497.946C210.825 533.016 236.208 544.279 253.209 544.857C259.487 545.069 265.868 543.731 272.607 541.522C272.618 541.522 272.618 541.517 272.621 541.517C284.136 537.755 296.691 531.471 311.55 526.122C333.391 518.237 377.202 506.857 387.224 457.802V457.797C388.024 453.909 388.605 449.78 388.949 445.408C389.877 433.394 388.58 422.057 385.892 411.602Z" fill="#9A519F"/>
<path d="M253.68 269.629C259.195 251.624 276.681 243.828 287.767 244.765C300.749 245.859 315.427 256.968 314.264 277.918C313.103 298.87 295.182 308.709 274.633 306.217C259.158 304.346 247.428 290.046 253.68 269.629Z" fill="#AA61A6"/>
<path d="M388.509 445.583C383.853 505.216 334.687 517.805 311.115 526.309C296.254 531.658 283.699 537.944 272.187 541.704C294.285 532.968 334.598 507.327 342.019 451.156C347.543 409.373 321.499 344.962 316.648 316.909C311.803 288.862 322.759 282.851 322.759 282.851L342.715 312.007L342.546 342.778C342.546 342.778 393.165 385.951 388.509 445.583Z" fill="#AA61A6"/>
<path d="M454.877 415.705C452.817 424.834 444.703 442.984 423.753 452.325C430.154 446.746 434.744 442.494 440.07 428.604C445.402 414.697 441.497 407.075 436.735 408.032C433.199 408.737 427.019 410.121 424.833 405.649C421.051 397.921 427.879 386.028 431.979 365.554C436.07 345.073 429.864 338.509 426.025 342.168C431.543 336.667 436.165 332.802 441.46 331.644C451.823 329.381 455.221 346.219 451.499 360.792C447.772 375.358 440.884 384.329 438.411 388.24C436.156 391.816 435.363 393.38 436.302 394.492C437.254 395.626 439.48 394.426 441.904 391.684C445.597 387.486 448.643 385.635 452.654 387.074C457.462 388.804 458.396 400.17 454.877 415.705Z" fill="#AA61A6"/>
<path d="M344.697 443.718C344.697 443.718 337.34 480.166 284.2 491.291C231.054 502.419 220.888 472.298 230.289 454.459C230.289 454.459 216.86 469.622 226.455 493.695C236.048 517.762 275.372 517.957 310.671 495.514C345.975 473.069 346.081 440.841 346.081 440.841L344.697 443.718Z" fill="#AA61A6"/>
<path d="M179.117 381.765C168.596 381.966 154.434 376.57 141.211 377.155C128.507 377.722 126.478 386.567 130.249 392.217C125.02 384.985 125.1 377.424 129.432 373.227C136.572 366.305 144.698 365.975 153.926 366.411C163.155 366.852 169.083 371.138 171.498 370.367C173.888 369.605 170.917 367.554 171.722 365.207C172.186 363.838 173.753 362.709 176.26 362.247C179.719 361.929 183.541 363.823 186.695 367.113C185.586 367.955 185.182 369.359 185.968 371.138C188.506 376.868 188.025 381.587 179.117 381.765Z" fill="#AA61A6"/>
<path d="M291.995 531.367C291.995 531.367 306.083 537.197 319.073 536.223C332.067 535.255 345.183 518.981 346.034 507.93C346.885 496.879 293.089 524.806 293.089 525.416C293.086 526.023 291.995 531.367 291.995 531.367Z" fill="#5F2A63"/>
<path d="M266.069 596.113C264.141 596.214 262.287 596.248 260.505 596.214C244.013 595.89 233.661 589.609 232.595 579.839C231.819 572.648 238.073 560.545 248.236 559.519C259.026 558.416 272.318 563.112 281.701 572.49C291.082 581.876 285.767 595.01 266.069 596.113Z" fill="#3A2B4D"/>
<path d="M340.129 573.35C340.112 573.356 340.101 573.356 340.089 573.356C339.854 573.379 339.608 573.39 339.361 573.407C339.29 573.407 339.215 573.413 339.155 573.413C323.084 574.218 307.899 570.15 305.656 562.597C303.409 555.016 309.587 546.162 319.423 545.741C329.826 545.294 340.648 549.351 348.493 556.133C355.449 562.153 355.518 572.23 340.129 573.35Z" fill="#3A2B4D"/>
<path d="M288.738 287.914C286.05 288.81 282.758 289.335 278.756 289.335C276.581 289.335 274.575 289.088 272.773 288.65C266.229 287.085 262.198 283.117 261.522 279.911C260.562 275.378 260.069 262.525 272.223 256.208C284.369 249.884 298.245 254.767 299.333 274.207C299.594 278.854 297.116 285.137 288.738 287.914Z" fill="white"/>
<path d="M256.411 226.189C254.282 222.834 255.107 219.45 261.313 214.164C267.516 208.881 273.338 205.36 277.246 206.66C281.151 207.964 282.3 213.861 282.3 216.465C282.3 219.067 281.535 220.751 276.633 221.98C271.731 223.207 267.788 224.926 263.92 227.267C260.582 229.278 258.537 229.536 256.411 226.189Z" fill="#3A3748"/>
<path d="M290.386 212.226C290.266 208.82 291.469 207.038 297.122 207.659C302.772 208.278 306.992 210.172 307.878 212.613C308.729 214.957 308.187 216.948 305.09 217.028C301.998 217.1 298.05 217.258 295.182 217.644C292.323 218.034 290.541 216.639 290.386 212.226Z" fill="#3A3748"/>
<path d="M401.063 302.201C397.453 331.563 380.973 344.697 376.245 342.964C371.524 341.233 374.521 334.62 370.426 327.529C367.69 322.807 363.561 319.974 359.43 318.659C357.364 318.003 355.31 317.719 353.424 317.773C353.424 317.773 357.04 322.647 358.298 328.008C359.562 333.36 360.189 343.906 346.181 348.943C332.168 353.98 322.243 341.861 318.146 324.383C314.06 306.906 311.281 278.294 318.146 252.095C321.756 238.363 332.067 228.721 342.31 229.799C342.58 229.824 342.849 229.862 343.116 229.902C382.907 236.308 404.668 272.839 401.063 302.201Z" fill="#3A2B4D"/>
<path d="M350.917 336.174C348.487 337.412 346.055 337.796 343.553 337.091C340.167 336.122 336.665 333.157 332.921 327.55C332.686 327.197 332.462 326.854 332.244 326.51C332.15 326.347 332.05 326.18 331.926 326.011C331.826 325.851 331.72 325.705 331.628 325.541C323.789 312.935 322.721 302.743 322.721 302.743C325.703 312.15 334.388 315.831 341.763 317.164C344.863 317.722 347.728 317.869 349.837 317.84C349.837 317.84 351.75 320.911 352.908 323.894C354.068 326.882 355.318 333.928 350.917 336.174Z" fill="#ED312E"/>
<path d="M347.293 265.226C349.694 264.27 349.754 258.998 347.568 256.184C344.96 252.832 340.024 255.027 341.396 259.96C342.339 263.37 345.72 265.857 347.293 265.226Z" fill="#201F29"/>
<path d="M350.917 336.173C348.487 337.411 346.055 337.795 343.548 337.09V337.079C349.424 338.592 346.559 325.718 341.763 317.163C344.863 317.722 347.728 317.868 349.837 317.839C349.837 317.839 351.751 320.911 352.902 323.893C354.069 326.879 355.318 333.927 350.917 336.173Z" fill="#201F29"/>
<path d="M171.908 364.648C171.82 364.805 171.745 364.966 171.679 365.135C171.739 364.966 171.811 364.802 171.908 364.648Z" fill="#6051A1"/>
<path d="M216.998 511.53L247.297 532.838C247.297 532.838 285.756 537.164 312.783 512.902C339.816 488.64 342.016 451.152 342.016 451.152C342.016 451.152 330.985 487.291 295.744 503.705C261.465 519.664 226.61 514.492 225.378 481.79C224.668 462.94 231.066 451.026 238.002 441.958C238.002 441.958 205.01 469.412 216.998 511.53Z" fill="#803985"/>
<path d="M301.08 506.774C294.582 508.038 288.216 508.745 282.004 508.969C260.232 515.521 240.121 512.96 230.801 499.574C203.831 488.085 186.72 468.547 187.969 454.694C187.686 456.674 187.482 458.699 187.365 460.751C187.362 460.877 187.353 461.006 187.345 461.129C186.709 472.77 188.66 485.391 194.422 498.07C210.355 533.133 235.74 544.396 252.739 544.975C259.014 545.187 265.397 543.849 272.139 541.646C272.145 541.646 272.145 541.64 272.151 541.64C283.663 537.875 296.221 531.589 311.082 526.24C332.918 518.361 376.729 506.975 386.757 457.92C382.72 472.561 364.283 494.434 301.08 506.774Z" fill="#803985"/>
<path d="M266.068 596.113C264.14 596.214 262.286 596.248 260.504 596.214C265.504 595.772 274.87 592.944 275.228 584.166C275.658 573.734 262.567 558.19 248.235 559.519C259.026 558.416 272.317 563.112 281.7 572.49C291.081 581.876 285.766 595.01 266.068 596.113Z" fill="#281F36"/>
<path d="M340.13 573.349C345.109 572.808 346.078 567.708 344.281 562.863C342.396 557.777 330.566 545.855 319.423 545.738C329.827 545.291 340.648 549.348 348.493 556.13C355.45 562.152 355.519 572.229 340.13 573.349Z" fill="#281F36"/>
<path d="M341.763 317.164C332.574 315.72 329.064 321.175 331.628 325.541C323.789 312.935 322.721 302.743 322.721 302.743C325.703 312.15 334.388 315.831 341.763 317.164Z" fill="#B92426"/>
<path d="M386.684 457.907C376.661 506.959 332.845 518.345 311.009 526.224C296.66 531.396 284.466 537.421 273.281 541.215C287.188 535.519 307.588 523.379 322.748 501.707C368.613 489.051 383.151 470.714 386.684 457.907Z" fill="#9F519E"/>
<path d="M197.505 369.634C193.666 365.907 188.843 365.471 186.692 367.113C183.537 363.824 179.715 361.927 176.257 362.248C179.526 361.637 184.36 362.159 190.388 364.766C193.121 365.947 195.505 367.614 197.505 369.634Z" fill="#9F519E"/>
<path d="M205.279 392.257C204.843 397.696 203.416 405.443 196.385 409.056C189.916 412.397 171.229 413.316 152.187 406.658C151.926 406.569 151.663 406.477 151.411 406.38C150.044 405.887 148.669 405.351 147.293 404.778C143.446 403.162 140.168 401.288 137.42 399.274C151.336 408.543 185.724 407.426 191.618 392.83C195.646 382.825 192.185 372.84 186.689 367.107C188.841 365.465 193.666 365.901 197.503 369.628C195.503 367.608 193.119 365.941 190.385 364.761C184.357 362.153 179.524 361.632 176.255 362.242C175.928 362.274 175.598 362.314 175.275 362.388C178.512 361.474 183.707 361.824 190.345 364.689C193.082 365.869 195.46 367.543 197.462 369.557C197.491 369.585 197.523 369.608 197.545 369.631C203.287 375.448 205.938 384.072 205.279 392.257Z" fill="#803985"/>
<path d="M292.331 276.76C292.331 283.711 286.696 289.341 279.75 289.341C272.805 289.341 267.172 283.711 267.172 276.76C267.172 269.818 272.805 264.185 279.75 264.185C286.696 264.185 292.331 269.818 292.331 276.76Z" fill="#201F29"/>
<path d="M289.953 268.787C289.953 272.001 287.349 274.609 284.131 274.609C280.917 274.609 278.304 272.001 278.304 268.787C278.304 265.569 280.917 262.962 284.131 262.962C287.346 262.962 289.953 265.569 289.953 268.787Z" fill="white"/>
<defs>
<filter id="filter0_d_904_155" x="524.932" y="0.93158" width="140.02" height="140.02" filterUnits="userSpaceOnUse" color-interpolation-filters="sRGB">
<feFlood flood-opacity="0" result="BackgroundImageFix"/>
<feColorMatrix in="SourceAlpha" type="matrix" values="0 0 0 0 0 0 0 0 0 0 0 0 0 0 0 0 0 0 127 0" result="hardAlpha"/>
<feOffset dx="3" dy="-1"/>
<feGaussianBlur stdDeviation="11.5"/>
<feComposite in2="hardAlpha" operator="out"/>
<feColorMatrix type="matrix" values="0 0 0 0 0 0 0 0 0 0 0 0 0 0 0 0 0 0 0.2 0"/>
<feBlend mode="normal" in2="BackgroundImageFix" result="effect1_dropShadow_904_155"/>
<feBlend mode="normal" in="SourceGraphic" in2="effect1_dropShadow_904_155" result="shape"/>
</filter>
<filter id="filter1_d_904_155" x="677.984" y="65.9754" width="182.676" height="182.676" filterUnits="userSpaceOnUse" color-interpolation-filters="sRGB">
<feFlood flood-opacity="0" result="BackgroundImageFix"/>
<feColorMatrix in="SourceAlpha" type="matrix" values="0 0 0 0 0 0 0 0 0 0 0 0 0 0 0 0 0 0 127 0" result="hardAlpha"/>
<feOffset dx="3" dy="4"/>
<feGaussianBlur stdDeviation="11.5"/>
<feComposite in2="hardAlpha" operator="out"/>
<feColorMatrix type="matrix" values="0 0 0 0 0 0 0 0 0 0 0 0 0 0 0 0 0 0 0.2 0"/>
<feBlend mode="normal" in2="BackgroundImageFix" result="effect1_dropShadow_904_155"/>
<feBlend mode="normal" in="SourceGraphic" in2="effect1_dropShadow_904_155" result="shape"/>
</filter>
<filter id="filter2_d_904_155" x="410.941" y="88.9285" width="98.0107" height="98.011" filterUnits="userSpaceOnUse" color-interpolation-filters="sRGB">
<feFlood flood-opacity="0" result="BackgroundImageFix"/>
<feColorMatrix in="SourceAlpha" type="matrix" values="0 0 0 0 0 0 0 0 0 0 0 0 0 0 0 0 0 0 127 0" result="hardAlpha"/>
<feOffset dx="3" dy="-1"/>
<feGaussianBlur stdDeviation="11.5"/>
<feComposite in2="hardAlpha" operator="out"/>
<feColorMatrix type="matrix" values="0 0 0 0 0 0 0 0 0 0 0 0 0 0 0 0 0 0 0.2 0"/>
<feBlend mode="normal" in2="BackgroundImageFix" result="effect1_dropShadow_904_155"/>
<feBlend mode="normal" in="SourceGraphic" in2="effect1_dropShadow_904_155" result="shape"/>
</filter>
<filter id="filter3_d_904_155" x="0" y="522.259" width="476.999" height="174.362" filterUnits="userSpaceOnUse" color-interpolation-filters="sRGB">
<feFlood flood-opacity="0" result="BackgroundImageFix"/>
<feColorMatrix in="SourceAlpha" type="matrix" values="0 0 0 0 0 0 0 0 0 0 0 0 0 0 0 0 0 0 127 0" result="hardAlpha"/>
<feOffset dx="1" dy="12"/>
<feGaussianBlur stdDeviation="9.5"/>
<feComposite in2="hardAlpha" operator="out"/>
<feColorMatrix type="matrix" values="0 0 0 0 0 0 0 0 0 0 0 0 0 0 0 0 0 0 0.25 0"/>
<feBlend mode="normal" in2="BackgroundImageFix" result="effect1_dropShadow_904_155"/>
<feBlend mode="normal" in="SourceGraphic" in2="effect1_dropShadow_904_155" result="shape"/>
</filter>
</defs>
</svg>
