<svg width="1728" height="246" viewBox="0 0 1728 246" fill="none" xmlns="http://www.w3.org/2000/svg">
<g filter="url(#filter0_d_660_12952)">
<path fill-rule="evenodd" clip-rule="evenodd" d="M1943.83 224C1888.95 203.644 1822.5 185.068 1746.62 168.65C1520.4 119.699 1208.32 89.4999 863.914 89.4999C519.512 89.4999 207.432 119.698 -18.7965 168.649C-94.6749 185.068 -161.126 203.644 -216 224L-156.898 224C-114.744 210.869 -67.1598 198.554 -14.7782 187.22C209.776 138.631 520.446 108.5 863.914 108.5C1207.38 108.5 1518.05 138.631 1742.61 187.22C1794.99 198.554 1842.57 210.87 1884.73 224L1943.83 224Z" fill="#F7F7F7"/>
</g>
<path d="M1485.91 129L1727.41 172L1727.41 3.00003L-0.585923 2.99988L-0.585938 172.5L206.414 136.5L463.914 107.5L747.414 98L1007.41 98L1190.91 102L1485.91 129Z" fill="#F7F7F7" stroke="#F7F7F7" stroke-width="5"/>
<defs>
<filter id="filter0_d_660_12952" x="-234" y="75.4999" width="2195.83" height="170.5" filterUnits="userSpaceOnUse" color-interpolation-filters="sRGB">
<feFlood flood-opacity="0" result="BackgroundImageFix"/>
<feColorMatrix in="SourceAlpha" type="matrix" values="0 0 0 0 0 0 0 0 0 0 0 0 0 0 0 0 0 0 127 0" result="hardAlpha"/>
<feOffset dy="4"/>
<feGaussianBlur stdDeviation="9"/>
<feComposite in2="hardAlpha" operator="out"/>
<feColorMatrix type="matrix" values="0 0 0 0 0 0 0 0 0 0 0 0 0 0 0 0 0 0 0.25 0"/>
<feBlend mode="normal" in2="BackgroundImageFix" result="effect1_dropShadow_660_12952"/>
<feBlend mode="normal" in="SourceGraphic" in2="effect1_dropShadow_660_12952" result="shape"/>
</filter>
</defs>
</svg>
