<svg width="376" height="444" viewBox="0 0 376 444" fill="none" xmlns="http://www.w3.org/2000/svg">
<path d="M89.8816 211.287C89.3866 217.465 87.7647 226.268 79.7726 230.375C72.4123 234.173 51.1815 235.221 29.5339 227.653C29.2342 227.552 28.9346 227.447 28.648 227.337C27.0913 226.777 25.5346 226.167 23.9681 225.513C19.591 223.676 15.8685 221.546 12.7453 219.257C12.7453 219.25 12.7355 219.25 12.7355 219.25C9.59272 216.931 7.06223 214.45 5.11143 211.926C4.90951 211.665 4.72712 211.408 4.548 211.151C-1.39884 202.927 -1.30764 194.339 3.61983 189.565C11.7292 181.693 20.9718 181.322 31.4586 181.82C41.9454 182.315 48.6869 187.187 51.4323 186.311C54.1484 185.448 50.7712 183.113 51.6831 180.446C51.7514 180.254 51.8329 180.071 51.9436 179.892C52.5559 178.791 53.8651 177.87 55.7801 177.329C59.457 176.293 65.3615 176.688 72.9074 179.944C76.0143 181.289 78.7239 183.188 81.0004 185.478C81.033 185.51 81.0656 185.536 81.0916 185.565C87.6116 192.177 90.6306 201.98 89.8816 211.287Z" fill="#9A519F"/>
<path d="M373.549 237.853C371.208 248.232 361.978 268.86 338.165 279.481C326.118 284.861 310.336 287.688 289.815 285.333C228.744 278.338 275.768 207.946 275.768 207.946C275.768 207.946 299.038 193.095 318.36 176.167C327.798 167.888 334.745 160.221 340.744 154.258C347.023 148.005 352.276 143.615 358.295 142.299C370.074 139.723 373.937 158.863 369.7 175.427C365.469 191.985 357.64 202.185 354.83 206.627C352.26 210.695 351.364 212.473 352.426 213.733C353.514 215.029 356.038 213.665 358.793 210.542C362.998 205.77 366.453 203.673 371.012 205.305C376.487 207.278 377.542 220.198 373.549 237.853Z" fill="#9A519F"/>
<path d="M342.003 277.611C340.762 278.266 339.492 278.895 338.16 279.481C326.113 284.861 310.331 287.688 289.81 285.333C282.704 284.522 277.069 282.848 272.653 280.536L270.67 257.963L294.636 233.401C301.42 261.129 318.769 289.258 342.003 277.611Z" fill="#803985"/>
<path d="M143.725 46.6421C129.806 54.0024 111.946 59.35 99.7134 58.8973C87.4745 58.4413 87.7285 52.0939 81.4625 53.3673C74.2651 54.8328 75.2714 68.0292 82.1041 73.1293C88.9302 78.2229 130.633 72.035 130.633 72.035L145.565 56.4645L143.725 46.6421Z" fill="#5F2A63"/>
<path d="M295.174 233.271C283.095 186.129 246.388 154.829 246.388 154.829L246.58 119.845L247.088 26.6035C215.423 23.552 184.239 25.1869 152.102 42.3141C119.974 59.4382 105.432 68.1109 85.26 67.173C65.0942 66.235 65.5501 60.0602 58.7565 58.5002C53.0409 57.1845 46.3287 59.6694 46.7944 73.0351C47.2699 86.4041 55.6333 101.955 76.5808 103.056C102.221 104.407 119.938 88.4429 121.332 87.1695C120.192 88.5764 106.96 105.57 104.915 135.513C102.977 163.824 115.173 178.111 133.463 184.377C133.47 184.377 133.473 184.38 133.48 184.384C152.681 191.48 154.782 198.853 154.023 204.931C153.261 211.004 144.781 216.714 124.973 221.521C115.02 223.683 104.579 227.278 95.7012 234.101C84.2635 242.891 73.7181 260.615 70.7349 282.093V282.119C70.4092 284.369 70.1812 286.665 70.0477 289.001C70.0412 289.141 70.0314 289.294 70.0216 289.434C69.3019 302.659 71.5198 317.009 78.0691 331.417C96.1799 371.279 125.032 384.082 144.357 384.739C151.493 384.98 158.745 383.46 166.405 380.949C166.418 380.949 166.418 380.942 166.422 380.942C179.511 376.666 193.782 369.524 210.671 363.444C235.498 354.481 285.297 341.545 296.689 285.786V285.78C297.597 281.36 298.258 276.667 298.649 271.697C299.704 258.042 298.229 245.155 295.174 233.271Z" fill="#9A519F"/>
<path d="M144.892 71.892C151.161 51.4265 171.037 42.5649 183.637 43.6299C198.394 44.8739 215.078 57.5004 213.756 81.3138C212.437 105.13 192.066 116.314 168.708 113.481C151.118 111.354 137.785 95.0997 144.892 71.892Z" fill="#AA61A6"/>
<path d="M298.149 271.896C292.857 339.679 236.971 353.989 210.177 363.655C193.284 369.736 179.013 376.881 165.928 381.154C191.047 371.224 236.87 342.079 245.305 278.23C251.584 230.737 221.98 157.522 216.466 125.635C210.959 93.7545 223.413 86.9219 223.413 86.9219L246.096 120.063L245.904 155.04C245.904 155.04 303.441 204.113 298.149 271.896Z" fill="#AA61A6"/>
<path d="M373.588 237.934C371.246 248.31 362.023 268.942 338.21 279.559C345.485 273.218 350.703 268.385 356.757 252.596C362.818 236.788 358.379 228.125 352.966 229.213C348.947 230.014 341.923 231.587 339.438 226.503C335.139 217.72 342.9 204.201 347.56 180.928C352.211 157.649 345.156 150.188 340.792 154.346C347.065 148.093 352.318 143.7 358.337 142.384C370.116 139.812 373.979 158.951 369.748 175.515C365.511 192.073 357.682 202.27 354.871 206.715C352.308 210.78 351.406 212.558 352.474 213.821C353.556 215.111 356.086 213.746 358.841 210.63C363.039 205.859 366.501 203.755 371.061 205.39C376.526 207.357 377.587 220.276 373.588 237.934Z" fill="#AA61A6"/>
<path d="M248.349 269.776C248.349 269.776 239.986 311.205 179.583 323.851C119.173 336.5 107.618 302.262 118.304 281.985C118.304 281.985 103.039 299.22 113.946 326.583C124.85 353.94 169.549 354.161 209.672 328.651C249.802 303.138 249.922 266.506 249.922 266.506L248.349 269.776Z" fill="#AA61A6"/>
<path d="M60.1378 199.355C48.1789 199.583 32.0808 193.45 17.0509 194.115C2.61038 194.759 0.304587 204.813 4.59048 211.235C-1.3531 203.015 -1.2619 194.421 3.66232 189.65C11.7782 181.781 21.0143 181.407 31.5043 181.902C41.9944 182.403 48.7326 187.275 51.478 186.399C54.1942 185.533 50.8169 183.201 51.7321 180.534C52.2597 178.977 54.0411 177.694 56.8908 177.17C60.8217 176.808 65.1662 178.961 68.7519 182.7C67.4915 183.657 67.0323 185.253 67.9247 187.275C70.8102 193.789 70.263 199.153 60.1378 199.355Z" fill="#AA61A6"/>
<path d="M188.443 369.403C188.443 369.403 204.457 376.031 219.223 374.923C233.992 373.823 248.902 355.324 249.869 342.763C250.836 330.202 189.687 361.945 189.687 362.639C189.684 363.329 188.443 369.403 188.443 369.403Z" fill="#5F2A63"/>
<path d="M158.974 442.999C156.782 443.113 154.675 443.153 152.649 443.113C133.903 442.745 122.137 435.607 120.925 424.501C120.043 416.327 127.152 402.57 138.704 401.404C150.969 400.15 166.077 405.488 176.743 416.147C187.406 426.817 181.364 441.746 158.974 442.999Z" fill="#3A2B4D"/>
<path d="M243.157 417.124C243.137 417.131 243.124 417.131 243.111 417.131C242.844 417.157 242.564 417.17 242.284 417.189C242.203 417.189 242.118 417.196 242.05 417.196C223.782 418.111 206.522 413.487 203.972 404.902C201.418 396.284 208.44 386.221 219.62 385.742C231.446 385.234 243.746 389.846 252.663 397.554C260.571 404.397 260.649 415.851 243.157 417.124Z" fill="#3A2B4D"/>
<path d="M184.741 92.6765C181.687 93.6959 177.945 94.2919 173.395 94.2919C170.923 94.2919 168.643 94.0118 166.595 93.5135C159.156 91.7353 154.574 87.2247 153.805 83.5804C152.714 78.4282 152.154 63.8184 165.969 56.6372C179.775 49.4496 195.547 54.9991 196.785 77.0962C197.081 82.3786 194.264 89.5207 184.741 92.6765Z" fill="white"/>
<path d="M147.996 22.5161C145.576 18.7024 146.514 14.8562 153.568 8.84749C160.619 2.84203 167.237 -1.16053 171.679 0.31804C176.118 1.79987 177.424 8.50228 177.424 11.4627C177.424 14.4198 176.555 16.3348 170.982 17.7319C165.41 19.1258 160.929 21.0799 156.532 23.7406C152.738 26.0269 150.413 26.32 147.996 22.5161Z" fill="#3A3748"/>
<path d="M186.614 6.64578C186.478 2.77349 187.846 0.747781 194.271 1.4545C200.693 2.15796 205.491 4.31067 206.497 7.08543C207.464 9.74946 206.849 12.0129 203.328 12.1041C199.814 12.1855 195.326 12.3646 192.066 12.8043C188.816 13.2472 186.79 11.6612 186.614 6.64578Z" fill="#3A3748"/>
<path d="M312.419 108.918C308.315 142.293 289.583 157.222 284.209 155.252C278.842 153.285 282.248 145.768 277.594 137.708C274.484 132.341 269.791 129.12 265.095 127.625C262.747 126.879 260.412 126.557 258.269 126.618C258.269 126.618 262.379 132.158 263.809 138.252C265.245 144.335 265.958 156.323 250.036 162.049C234.107 167.774 222.826 153.998 218.168 134.132C213.524 114.266 210.365 81.7435 218.168 51.9637C222.272 36.3541 233.993 25.3951 245.636 26.6197C245.942 26.649 246.248 26.6913 246.551 26.7369C291.781 34.019 316.516 75.5427 312.419 108.918Z" fill="#3A2B4D"/>
<path d="M255.419 147.533C252.657 148.94 249.892 149.376 247.049 148.575C243.2 147.474 239.22 144.104 234.963 137.73C234.696 137.33 234.442 136.939 234.195 136.548C234.087 136.362 233.973 136.173 233.833 135.981C233.719 135.799 233.599 135.633 233.494 135.447C224.584 121.117 223.369 109.533 223.369 109.533C226.759 120.225 236.631 124.41 245.014 125.924C248.537 126.56 251.794 126.726 254.191 126.693C254.191 126.693 256.367 130.184 257.682 133.575C259.001 136.971 260.421 144.98 255.419 147.533Z" fill="#ED312E"/>
<path d="M251.299 66.8896C254.028 65.8019 254.097 59.8094 251.612 56.6113C248.648 52.8009 243.037 55.2956 244.597 60.9037C245.668 64.7793 249.511 67.6061 251.299 66.8896Z" fill="#201F29"/>
<path d="M255.419 147.533C252.657 148.94 249.892 149.377 247.043 148.576V148.563C253.722 150.282 250.465 135.649 245.014 125.925C248.537 126.56 251.794 126.726 254.191 126.693C254.191 126.693 256.367 130.185 257.676 133.575C259.001 136.968 260.421 144.98 255.419 147.533Z" fill="#201F29"/>
<path d="M51.9441 179.899C51.8432 180.078 51.7585 180.26 51.6836 180.453C51.752 180.26 51.8334 180.075 51.9441 179.899Z" fill="#6051A1"/>
<path d="M103.196 346.856L137.636 371.077C137.636 371.077 181.352 375.995 212.073 348.416C242.8 320.838 245.301 278.227 245.301 278.227C245.301 278.227 232.763 319.304 192.705 337.962C153.741 356.102 114.122 350.224 112.722 313.051C111.914 291.625 119.187 278.084 127.071 267.776C127.071 267.776 89.5698 298.982 103.196 346.856Z" fill="#803985"/>
<path d="M198.77 341.451C191.384 342.887 184.148 343.691 177.087 343.945C152.339 351.393 129.48 348.482 118.885 333.266C88.2296 320.207 68.7802 297.999 70.2002 282.252C69.8778 284.503 69.6465 286.805 69.513 289.137C69.5098 289.281 69.5 289.427 69.4902 289.567C68.7672 302.799 70.9851 317.145 77.5344 331.556C95.6452 371.413 124.5 384.215 143.822 384.873C150.955 385.114 158.211 383.593 165.874 381.089C165.88 381.089 165.88 381.082 165.887 381.082C178.973 376.803 193.247 369.657 210.14 363.577C234.96 354.621 284.759 341.679 296.157 285.92C291.569 302.562 270.611 327.424 198.77 341.451Z" fill="#803985"/>
<path d="M158.973 442.999C156.781 443.113 154.674 443.153 152.649 443.113C158.332 442.612 168.978 439.397 169.385 429.419C169.874 417.561 154.993 399.893 138.703 401.404C150.968 400.15 166.076 405.488 176.742 416.147C187.405 426.817 181.363 441.746 158.973 442.999Z" fill="#281F36"/>
<path d="M243.158 417.125C248.818 416.509 249.919 410.712 247.877 405.205C245.734 399.424 232.287 385.873 219.621 385.739C231.446 385.231 243.747 389.843 252.664 397.551C260.572 404.397 260.65 415.851 243.158 417.125Z" fill="#281F36"/>
<path d="M245.014 125.924C234.569 124.283 230.58 130.484 233.494 135.447C224.584 121.117 223.369 109.533 223.369 109.533C226.759 120.225 236.631 124.41 245.014 125.924Z" fill="#B92426"/>
<path d="M296.074 285.903C284.682 341.659 234.877 354.601 210.057 363.557C193.747 369.436 179.886 376.285 167.172 380.597C182.98 374.122 206.168 360.324 223.4 335.689C275.534 321.304 292.059 300.461 296.074 285.903Z" fill="#9F519E"/>
<path d="M81.0388 185.566C76.6748 181.329 71.1937 180.834 68.7478 182.7C65.1621 178.961 60.8176 176.805 56.8867 177.17C60.6027 176.476 66.0968 177.069 72.949 180.033C76.056 181.374 78.7656 183.27 81.0388 185.566Z" fill="#9F519E"/>
<path d="M89.8752 211.281C89.3802 217.463 87.7583 226.269 79.7663 230.376C72.4125 234.173 51.1719 235.218 29.5275 227.65C29.2312 227.549 28.9315 227.445 28.6449 227.334C27.0914 226.774 25.5282 226.165 23.965 225.513C19.5911 223.677 15.8654 221.547 12.7422 219.257C28.5603 229.793 67.6479 228.523 74.347 211.933C78.926 200.56 74.9919 189.21 68.7454 182.693C71.1912 180.827 76.6756 181.322 81.0364 185.559C78.7632 183.263 76.0536 181.368 72.9466 180.026C66.0944 177.063 60.6002 176.47 56.8843 177.164C56.513 177.199 56.1385 177.245 55.7705 177.33C59.4506 176.291 65.3551 176.688 72.901 179.945C76.0112 181.287 78.7143 183.189 80.9908 185.478C81.0234 185.511 81.0592 185.537 81.0852 185.563C87.6118 192.174 90.6243 201.977 89.8752 211.281Z" fill="#803985"/>
<path d="M188.826 79.998C188.826 87.8989 182.42 94.2984 174.526 94.2984C166.631 94.2984 160.229 87.8989 160.229 79.998C160.229 72.1069 166.631 65.7041 174.526 65.7041C182.42 65.7041 188.826 72.1069 188.826 79.998Z" fill="#201F29"/>
<path d="M186.123 70.9345C186.123 74.5886 183.162 77.5522 179.505 77.5522C175.851 77.5522 172.881 74.5886 172.881 70.9345C172.881 67.2771 175.851 64.3135 179.505 64.3135C183.159 64.3135 186.123 67.2771 186.123 70.9345Z" fill="white"/>
</svg>
