<svg width="134" height="24" viewBox="0 0 134 24" fill="none" xmlns="http://www.w3.org/2000/svg">
<path d="M3.1534 5.32617V11.9965C3.1534 13.9348 4.21342 15.4085 6.23005 15.4085C8.16911 15.4085 9.48767 13.7797 9.48767 11.8414V5.32697H12.616V18.0981H9.79792L9.59109 16.3659C8.27252 17.6594 7.05738 18.2791 5.27344 18.2791C2.22346 18.2791 0 15.9781 0 12.0224V5.32697L3.1534 5.32617Z" fill="#3B5CA8"/>
<path d="M26.7321 16.4421C25.2585 17.8892 23.7072 18.458 21.8199 18.458C18.1227 18.458 15.0469 16.2345 15.0469 11.71C15.0469 7.18554 18.1235 4.96289 21.8199 4.96289C23.6297 4.96289 25.0258 5.47916 26.4219 6.84943L24.4311 8.94362C23.6814 8.27222 22.7506 7.93611 21.8716 7.93611C19.7515 7.93611 18.2011 9.48737 18.2011 11.71C18.2011 14.1403 19.8558 15.433 21.8199 15.433C22.8282 15.433 23.8365 15.1478 24.6121 14.3722L26.7321 16.4421Z" fill="#193B93"/>
<path d="M38.6246 5.32691H41.6495V18.0722H38.6763L38.5212 16.2099C37.7973 17.7094 35.8073 18.4333 34.3845 18.4592C30.6098 18.4851 27.8184 16.1582 27.8184 11.6854C27.8184 7.29101 30.7399 4.98999 34.4621 5.01584C36.1684 5.01584 37.7965 5.81651 38.5212 7.08417L38.6246 5.32691ZM30.9718 11.6862C30.9718 14.1165 32.6523 15.5643 34.7457 15.5643C39.7097 15.5643 39.7097 7.83475 34.7457 7.83475C32.6523 7.83394 30.9718 9.25592 30.9718 11.6862Z" fill="#193B93"/>
<path d="M54.0857 18.0712V11.4008C54.0857 9.46178 53.0248 7.98809 51.0082 7.98809C49.07 7.98809 47.7514 9.6169 47.7514 11.5552V18.0704H44.623V5.30006H47.4411L47.648 7.03148C48.9407 5.76544 50.2326 5.11908 51.8364 5.11908C54.8354 5.11908 57.2399 7.36759 57.2399 11.375V18.0712H54.0857Z" fill="#193B93"/>
<path d="M68.6658 8.71214C67.761 7.85896 66.7276 7.57456 65.5124 7.57456C64.0129 7.57456 63.1856 8.03994 63.1856 8.84142C63.1856 9.66794 63.9353 10.1341 65.5634 10.2383C67.9678 10.3927 71.0186 10.9356 71.0186 14.3225C71.0186 16.5718 69.1829 18.5109 65.5383 18.5109C63.5217 18.5109 61.5051 18.1748 59.6436 16.2365L61.1948 13.9872C62.0997 14.9955 64.168 15.7453 65.5892 15.7719C66.7785 15.797 67.8902 15.1773 67.8902 14.2457C67.8902 13.3667 67.1663 13.0055 65.3565 12.9013C62.9521 12.7203 60.0831 11.8413 60.0831 8.94564C60.0831 5.99907 63.1331 4.9649 65.4599 4.9649C67.4507 4.9649 68.9503 5.3519 70.4239 6.64461L68.6658 8.71214Z" fill="#193B93"/>
<path d="M73.5532 23.397V5.32657H76.4998L76.7066 7.08465C77.6891 5.66267 79.3955 5.04297 80.8433 5.04297C84.7723 5.04297 87.3836 7.96369 87.3836 11.7125C87.3836 15.4355 85.0317 18.3821 80.9467 18.3821C79.6023 18.3821 77.6115 17.9684 76.7066 16.5731V23.3978L73.5532 23.397ZM84.2302 11.7117C84.2302 9.72097 82.8858 8.09296 80.6114 8.09296C78.3362 8.09296 76.9918 9.72177 76.9918 11.7117C76.9918 13.7017 78.4655 15.3305 80.6114 15.3305C82.7565 15.3305 84.2302 13.7025 84.2302 11.7117Z" fill="#193B93"/>
<path d="M92.9179 12.823C93.1248 14.4001 94.4951 15.5368 96.7185 15.5368C97.8811 15.5368 99.4065 15.0981 100.131 14.3483L102.148 16.3383C100.803 17.7352 98.6059 18.4075 96.6668 18.4075C92.2724 18.4075 89.6611 15.6928 89.6611 11.6078C89.6611 7.73049 92.2983 4.93744 96.4341 4.93744C100.7 4.93744 103.363 7.57456 102.872 12.823H92.9179ZM99.8461 10.2117C99.6392 8.55783 98.3473 7.7313 96.5367 7.7313C94.8312 7.7313 93.435 8.55783 92.9697 10.2117H99.8461Z" fill="#193B93"/>
<path d="M115.927 5.32691H118.952V18.0722H115.979L115.824 16.2099C115.1 17.7094 113.11 18.4333 111.687 18.4592C107.913 18.4851 105.121 16.1582 105.121 11.6854C105.121 7.29101 108.042 4.98999 111.766 5.01584C113.471 5.01584 115.1 5.81651 115.824 7.08417L115.927 5.32691ZM108.275 11.6862C108.275 14.1165 109.956 15.5643 112.05 15.5643C117.014 15.5643 117.014 7.83475 112.05 7.83475C109.956 7.83394 108.275 9.25592 108.275 11.6862Z" fill="#193B93"/>
<path d="M125.21 0V10.4451L129.502 5.32596H133.277V5.50774L128.08 11.3241L134 17.8386V18.0721H130.2L125.21 12.3066V18.0721H122.056V0H125.21Z" fill="#193B93"/>
</svg>
