<svg width="125" height="23" viewBox="0 0 125 23" fill="none" xmlns="http://www.w3.org/2000/svg">
<path d="M2.93948 5.27734V11.4952C2.93948 13.302 3.9276 14.6757 5.80742 14.6757C7.61495 14.6757 8.84406 13.1574 8.84406 11.3506V5.27809H11.7602V17.1829H9.13326L8.94046 15.5682C7.71135 16.7739 6.57863 17.3516 4.91571 17.3516C2.07263 17.3516 0 15.2067 0 11.5193V5.27809L2.93948 5.27734Z" fill="white"/>
<path d="M24.9185 15.64C23.5447 16.9888 22.0987 17.5191 20.3394 17.5191C16.8931 17.5191 14.0259 15.4464 14.0259 11.2289C14.0259 7.01132 16.8938 4.93945 20.3394 4.93945C22.0264 4.93945 23.3278 5.4207 24.6293 6.69802L22.7735 8.65015C22.0746 8.02429 21.207 7.71098 20.3876 7.71098C18.4114 7.71098 16.9661 9.15701 16.9661 11.2289C16.9661 13.4943 18.5085 14.6993 20.3394 14.6993C21.2793 14.6993 22.2192 14.4335 22.9422 13.7105L24.9185 15.64Z" fill="white"/>
<path d="M36.0038 5.27845H38.8236V17.1591H36.052L35.9074 15.4232C35.2326 16.821 33.3777 17.4958 32.0514 17.5199C28.5327 17.544 25.9307 15.375 25.9307 11.2056C25.9307 7.10931 28.654 4.96438 32.1237 4.98848C33.7143 4.98848 35.2319 5.73484 35.9074 6.9165L36.0038 5.27845ZM28.8701 11.2064C28.8701 13.4718 30.4367 14.8214 32.388 14.8214C37.0153 14.8214 37.0153 7.61617 32.388 7.61617C30.4367 7.61541 28.8701 8.94093 28.8701 11.2064Z" fill="white"/>
<path d="M50.4164 17.1594V10.9416C50.4164 9.13404 49.4276 7.76033 47.5477 7.76033C45.741 7.76033 44.5118 9.27864 44.5118 11.0854V17.1587H41.5957V5.25464H44.2226L44.4154 6.86861C45.6205 5.68845 46.8247 5.08594 48.3197 5.08594C51.1153 5.08594 53.3567 7.18192 53.3567 10.9175V17.1594H50.4164Z" fill="white"/>
<path d="M64.0079 8.43444C63.1644 7.63913 62.2011 7.37403 61.0684 7.37403C59.6706 7.37403 58.8994 7.80784 58.8994 8.55495C58.8994 9.32541 59.5983 9.75996 61.1159 9.85711C63.3572 10.001 66.201 10.5071 66.201 13.6642C66.201 15.7609 64.4899 17.5685 61.0925 17.5685C59.2127 17.5685 57.3329 17.2552 55.5977 15.4484L57.0437 13.3517C57.8872 14.2916 59.8152 14.9905 61.14 15.0153C62.2486 15.0387 63.2849 14.461 63.2849 13.5927C63.2849 12.7733 62.6101 12.4366 60.9231 12.3394C58.6817 12.1707 56.0074 11.3513 56.0074 8.6521C56.0074 5.90542 58.8504 4.94141 61.0195 4.94141C62.8752 4.94141 64.273 5.30215 65.6467 6.50717L64.0079 8.43444Z" fill="white"/>
<path d="M68.5635 22.1226V5.27803H71.3102L71.503 6.91685C72.4188 5.59133 74.0094 5.01367 75.359 5.01367C79.0215 5.01367 81.4556 7.73626 81.4556 11.2308C81.4556 14.7012 79.2633 17.4479 75.4554 17.4479C74.2022 17.4479 72.3465 17.0623 71.503 15.7617V22.1234L68.5635 22.1226ZM78.5162 11.2301C78.5162 9.37433 77.2629 7.85676 75.1429 7.85676C73.022 7.85676 71.7688 9.37508 71.7688 11.2301C71.7688 13.085 73.1425 14.6033 75.1429 14.6033C77.1424 14.6033 78.5162 13.0858 78.5162 11.2301Z" fill="white"/>
<path d="M86.615 12.2666C86.8078 13.7367 88.0851 14.7964 90.1577 14.7964C91.2415 14.7964 92.6634 14.3874 93.339 13.6885L95.2188 15.5435C93.9656 16.8457 91.917 17.4723 90.1095 17.4723C86.0132 17.4723 83.5791 14.9417 83.5791 11.1339C83.5791 7.5196 86.0373 4.91602 89.8926 4.91602C93.8692 4.91602 96.3515 7.37424 95.8936 12.2666H86.615ZM93.0731 9.83248C92.8803 8.29081 91.676 7.52035 89.9883 7.52035C88.3984 7.52035 87.097 8.29081 86.6632 9.83248H93.0731Z" fill="white"/>
<path d="M108.063 5.27845H110.883V17.1591H108.112L107.967 15.4232C107.292 16.821 105.437 17.4958 104.111 17.5199C100.593 17.544 97.9902 15.375 97.9902 11.2056C97.9902 7.10931 100.713 4.96438 104.184 4.98848C105.774 4.98848 107.292 5.73484 107.967 6.9165L108.063 5.27845ZM100.93 11.2064C100.93 13.4718 102.497 14.8214 104.449 14.8214C109.076 14.8214 109.076 7.61617 104.449 7.61617C102.497 7.61541 100.93 8.94093 100.93 11.2064Z" fill="white"/>
<path d="M116.717 0.3125V10.049L120.717 5.27717H124.236V5.44662L119.392 10.8684L124.91 16.941V17.1586H121.368L116.717 11.7843V17.1586H113.776V0.3125H116.717Z" fill="white"/>
</svg>
