<svg width="165" height="30" viewBox="0 0 165 30" fill="none" xmlns="http://www.w3.org/2000/svg">
<path d="M3.88292 7.19238V15.4059C3.88292 17.7926 5.18817 19.6072 7.67133 19.6072C10.059 19.6072 11.6826 17.6015 11.6826 15.2149V7.19337H15.5347V22.919H12.0646L11.8099 20.7861C10.1863 22.3788 8.69006 23.1419 6.49342 23.1419C2.73784 23.1419 0 20.3085 0 15.4377V7.19337L3.88292 7.19238Z" fill="white"/>
<path d="M32.9162 20.882C31.1016 22.6637 29.1914 23.3641 26.8675 23.3641C22.315 23.3641 18.5276 20.6263 18.5276 15.0551C18.5276 9.48391 22.316 6.74707 26.8675 6.74707C29.0959 6.74707 30.815 7.38277 32.5342 9.07005L30.0828 11.6487C29.1596 10.822 28.0135 10.4081 26.9311 10.4081C24.3206 10.4081 22.4115 12.3183 22.4115 15.0551C22.4115 18.0476 24.449 19.6394 26.8675 19.6394C28.109 19.6394 29.3506 19.2882 30.3057 18.3331L32.9162 20.882Z" fill="white"/>
<path d="M47.5596 7.19384H51.2843V22.8877H47.6233L47.4323 20.5945C46.5409 22.441 44.0905 23.3324 42.3386 23.3642C37.6906 23.396 34.2534 20.5309 34.2534 15.0233C34.2534 9.61233 37.8508 6.77898 42.4341 6.81081C44.5352 6.81081 46.5399 7.79671 47.4323 9.35764L47.5596 7.19384ZM38.1363 15.0243C38.1363 18.0169 40.2056 19.7996 42.7833 19.7996C48.8957 19.7996 48.8957 10.2819 42.7833 10.2819C40.2056 10.2809 38.1363 12.0318 38.1363 15.0243Z" fill="white"/>
<path d="M66.5978 22.887V14.6735C66.5978 12.2858 65.2915 10.4712 62.8084 10.4712C60.4217 10.4712 58.7981 12.4768 58.7981 14.8635V22.886H54.946V7.16132H58.4161L58.6708 9.2933C60.2625 7.73436 61.8533 6.93848 63.8281 6.93848C67.521 6.93848 70.4817 9.70717 70.4817 14.6416V22.887H66.5978Z" fill="white"/>
<path d="M84.5514 11.3632C83.4372 10.3126 82.1648 9.9624 80.6685 9.9624C78.8221 9.9624 77.8033 10.5354 77.8033 11.5223C77.8033 12.5401 78.7266 13.1141 80.7312 13.2424C83.6919 13.4325 87.4485 14.101 87.4485 18.2714C87.4485 21.0411 85.1881 23.4288 80.7004 23.4288C78.2172 23.4288 75.734 23.0149 73.4419 20.6282L75.352 17.8586C76.4663 19.1001 79.0131 20.0234 80.763 20.0562C82.2275 20.087 83.5964 19.324 83.5964 18.1769C83.5964 17.0945 82.705 16.6498 80.4765 16.5215C77.5158 16.2986 73.9831 15.2162 73.9831 11.6507C73.9831 8.02244 77.7387 6.74902 80.6039 6.74902C83.0552 6.74902 84.9016 7.22555 86.7163 8.81732L84.5514 11.3632Z" fill="white"/>
<path d="M90.5693 29.4439V7.19296H94.1976L94.4523 9.35776C95.662 7.60681 97.7631 6.84375 99.5459 6.84375C104.384 6.84375 107.599 10.4402 107.599 15.0563C107.599 19.6406 104.703 23.2688 99.6733 23.2688C98.0178 23.2688 95.5665 22.7594 94.4523 21.0413V29.4449L90.5693 29.4439ZM103.716 15.0553C103.716 12.604 102.061 10.5993 99.2604 10.5993C96.4589 10.5993 94.8035 12.605 94.8035 15.0553C94.8035 17.5056 96.6181 19.5112 99.2604 19.5112C101.902 19.5112 103.716 17.5066 103.716 15.0553Z" fill="white"/>
<path d="M114.414 16.4246C114.669 18.3666 116.356 19.7663 119.094 19.7663C120.525 19.7663 122.404 19.2261 123.296 18.3029L125.779 20.7532C124.124 22.4733 121.418 23.3011 119.03 23.3011C113.619 23.3011 110.404 19.9583 110.404 14.9284C110.404 10.1541 113.651 6.71484 118.744 6.71484C123.997 6.71484 127.276 9.96204 126.671 16.4246H114.414ZM122.945 13.2093C122.69 11.1728 121.099 10.155 118.87 10.155C116.77 10.155 115.051 11.1728 114.478 13.2093H122.945Z" fill="white"/>
<path d="M142.747 7.19384H146.472V22.8877H142.811L142.62 20.5945C141.728 22.441 139.278 23.3324 137.526 23.3642C132.879 23.396 129.441 20.5309 129.441 15.0233C129.441 9.61233 133.037 6.77898 137.622 6.81081C139.722 6.81081 141.728 7.79671 142.62 9.35764L142.747 7.19384ZM133.325 15.0243C133.325 18.0169 135.394 19.7996 137.973 19.7996C144.085 19.7996 144.085 10.2819 137.973 10.2819C135.394 10.2809 133.325 12.0318 133.325 15.0243Z" fill="white"/>
<path d="M154.177 0.634766V13.4963L159.462 7.19286H164.11V7.41669L157.711 14.5787L165 22.6002V22.8877H160.321L154.177 15.7884V22.8877H150.293V0.634766H154.177Z" fill="white"/>
</svg>
