<svg width="252" height="44" viewBox="0 0 252 44" fill="none" xmlns="http://www.w3.org/2000/svg">
<path d="M5.93029 10.0156V22.5599C5.93029 26.205 7.92377 28.9764 11.7162 28.9764C15.3628 28.9764 17.8425 25.9133 17.8425 22.2682V10.0171H23.7257V34.0346H18.426L18.037 30.7769C15.5573 33.2095 13.2721 34.3749 9.91724 34.3749C4.18144 34.3749 0 30.0476 0 22.6086V10.0171L5.93029 10.0156Z" fill="#3B5CA8"/>
<path d="M50.2722 30.9219C47.5008 33.6431 44.5835 34.7128 41.0342 34.7128C34.0813 34.7128 28.2969 30.5314 28.2969 22.0226C28.2969 13.5139 34.0828 9.33398 41.0342 9.33398C44.4377 9.33398 47.0632 10.3049 49.6888 12.8818L45.9449 16.8202C44.5349 15.5575 42.7845 14.9254 41.1314 14.9254C37.1444 14.9254 34.2287 17.8427 34.2287 22.0226C34.2287 26.593 37.3405 29.0241 41.0342 29.0241C42.9304 29.0241 44.8266 28.4878 46.2853 27.0291L50.2722 30.9219Z" fill="#193B93"/>
<path d="M72.6367 10.0151H78.3254V33.9839H72.7339L72.4422 30.4816C71.0808 33.3017 67.3385 34.6631 64.6628 34.7117C57.564 34.7603 52.3145 30.3844 52.3145 21.9729C52.3145 13.7088 57.8087 9.38147 64.8086 9.43009C68.0176 9.43009 71.0793 10.9358 72.4422 13.3198L72.6367 10.0151ZM58.2447 21.9744C58.2447 26.5448 61.4051 29.2676 65.3419 29.2676C74.6773 29.2676 74.6773 14.7313 65.3419 14.7313C61.4051 14.7298 58.2447 17.404 58.2447 21.9744Z" fill="#193B93"/>
<path d="M101.713 33.9847V21.4404C101.713 17.7938 99.7184 15.0224 95.9259 15.0224C92.2808 15.0224 89.8012 18.0856 89.8012 21.7306V33.9832H83.918V9.9673H89.2177L89.6067 13.2234C92.0377 10.8425 94.4673 9.62695 97.4833 9.62695C103.123 9.62695 107.645 13.8555 107.645 21.3918V33.9847H101.713Z" fill="#193B93"/>
<path d="M129.133 16.383C127.432 14.7785 125.488 14.2437 123.203 14.2437C120.383 14.2437 118.827 15.1188 118.827 16.6261C118.827 18.1805 120.237 19.0572 123.299 19.2532C127.821 19.5434 133.558 20.5644 133.558 26.9338C133.558 31.1639 130.106 34.8105 123.252 34.8105C119.459 34.8105 115.667 34.1784 112.166 30.5333L115.083 26.3033C116.785 28.1995 120.675 29.6095 123.347 29.6597C125.584 29.7068 127.675 28.5414 127.675 26.7895C127.675 25.1364 126.313 24.4572 122.91 24.2612C118.388 23.9208 112.993 22.2677 112.993 16.8221C112.993 11.2808 118.728 9.33594 123.104 9.33594C126.848 9.33594 129.668 10.0637 132.44 12.4948L129.133 16.383Z" fill="#193B93"/>
<path d="M138.324 43.9991V10.0158H143.866L144.255 13.322C146.102 10.6478 149.311 9.48242 152.034 9.48242C159.423 9.48242 164.334 14.9751 164.334 22.0252C164.334 29.0267 159.911 34.568 152.228 34.568C149.7 34.568 145.956 33.7901 144.255 31.1661V44.0006L138.324 43.9991ZM158.403 22.0237C158.403 18.2799 155.875 15.2182 151.598 15.2182C147.319 15.2182 144.791 18.2814 144.791 22.0237C144.791 25.766 147.562 28.8292 151.598 28.8292C155.632 28.8292 158.403 25.7676 158.403 22.0237Z" fill="#193B93"/>
<path d="M174.742 24.1147C175.131 27.0806 177.708 29.2184 181.889 29.2184C184.076 29.2184 186.944 28.3933 188.307 26.9833L192.1 30.7257C189.571 33.3527 185.439 34.6169 181.792 34.6169C173.528 34.6169 168.617 29.5116 168.617 21.8295C168.617 14.5378 173.577 9.28516 181.354 9.28516C189.377 9.28516 194.385 14.2445 193.461 24.1147H174.742ZM187.771 19.2039C187.382 16.0937 184.952 14.5393 181.547 14.5393C178.34 14.5393 175.714 16.0937 174.839 19.2039H187.771Z" fill="#193B93"/>
<path d="M218.014 10.0151H223.702V33.9839H218.111L217.819 30.4816C216.458 33.3017 212.715 34.6631 210.04 34.7117C202.943 34.7603 197.691 30.3844 197.691 21.9729C197.691 13.7088 203.184 9.38147 210.187 9.43009C213.395 9.43009 216.458 10.9358 217.819 13.3198L218.014 10.0151ZM203.623 21.9744C203.623 26.5448 206.784 29.2676 210.722 29.2676C220.057 29.2676 220.057 14.7313 210.722 14.7313C206.784 14.7298 203.623 17.404 203.623 21.9744Z" fill="#193B93"/>
<path d="M235.471 0V19.643L243.542 10.016H250.641V10.3579L240.868 21.2962L252.001 33.5472V33.9863H244.855L235.471 23.1438V33.9863H229.539V0H235.471Z" fill="#193B93"/>
</svg>
