<svg width="114" height="20" viewBox="0 0 114 20" fill="none" xmlns="http://www.w3.org/2000/svg">
<path d="M2.66995 4.50977V10.1575C2.66995 11.7986 3.56746 13.0464 5.27492 13.0464C6.9167 13.0464 8.03312 11.6673 8.03312 10.0262V4.51044H10.6819V15.3237H8.2958L8.12068 13.857C7.00426 14.9522 5.97541 15.4769 4.46497 15.4769C1.88258 15.4769 0 13.5286 0 10.1794V4.51044L2.66995 4.50977Z" fill="white"/>
<path d="M22.6335 13.9225C21.3858 15.1477 20.0724 15.6293 18.4744 15.6293C15.344 15.6293 12.7397 13.7467 12.7397 9.91585C12.7397 6.08502 15.3447 4.20312 18.4744 4.20312C20.0067 4.20312 21.1888 4.64024 22.3709 5.80044L20.6853 7.57357C20.0505 7.0051 19.2624 6.72052 18.5181 6.72052C16.7231 6.72052 15.4104 8.03395 15.4104 9.91585C15.4104 11.9736 16.8114 13.0681 18.4744 13.0681C19.3281 13.0681 20.1818 12.8266 20.8385 12.1699L22.6335 13.9225Z" fill="white"/>
<path d="M32.7028 4.50965H35.2639V15.301H32.7465L32.6152 13.7242C32.0023 14.9938 30.3174 15.6067 29.1127 15.6286C25.9167 15.6505 23.5532 13.6804 23.5532 9.89333C23.5532 6.17264 26.0268 4.22439 29.1784 4.24628C30.6232 4.24628 32.0016 4.92419 32.6152 5.99751L32.7028 4.50965ZM26.2232 9.89401C26.2232 11.9517 27.6461 13.1776 29.4185 13.1776C33.6215 13.1776 33.6215 6.63302 29.4185 6.63302C27.6461 6.63233 26.2232 7.83631 26.2232 9.89401Z" fill="white"/>
<path d="M45.7941 15.3014V9.65366C45.7941 8.01188 44.8959 6.76412 43.1885 6.76412C41.5474 6.76412 40.431 8.14322 40.431 9.78432V15.3007H37.7822V4.48819H40.1683L40.3434 5.95417C41.4379 4.88223 42.5318 4.33496 43.8897 4.33496C46.429 4.33496 48.4648 6.23875 48.4648 9.63178V15.3014H45.7941Z" fill="white"/>
<path d="M58.1386 7.37685C57.3724 6.65447 56.4975 6.41367 55.4686 6.41367C54.199 6.41367 53.4985 6.8077 53.4985 7.4863C53.4985 8.18612 54.1333 8.58082 55.5117 8.66907C57.5476 8.79973 60.1306 9.25943 60.1306 12.1271C60.1306 14.0316 58.5764 15.6733 55.4905 15.6733C53.7831 15.6733 52.0756 15.3888 50.4995 13.7477L51.8129 11.8432C52.5791 12.6969 54.3303 13.3317 55.5336 13.3543C56.5406 13.3755 57.4819 12.8508 57.4819 12.0621C57.4819 11.3178 56.869 11.012 55.3366 10.9238C53.3008 10.7706 50.8717 10.0263 50.8717 7.57455C50.8717 5.07972 53.454 4.2041 55.4242 4.2041C57.1097 4.2041 58.3794 4.53177 59.6272 5.62629L58.1386 7.37685Z" fill="white"/>
<path d="M62.2769 19.8097V4.50965H64.7717L64.9468 5.9982C65.7786 4.79422 67.2234 4.26953 68.4493 4.26953C71.776 4.26953 73.9869 6.74247 73.9869 9.91659C73.9869 13.0688 71.9955 15.5636 68.5368 15.5636C67.3985 15.5636 65.713 15.2134 64.9468 14.032V19.8104L62.2769 19.8097ZM71.3169 9.91591C71.3169 8.23035 70.1786 6.85193 68.253 6.85193C66.3266 6.85193 65.1883 8.23103 65.1883 9.91591C65.1883 11.6008 66.436 12.9799 68.253 12.9799C70.0692 12.9799 71.3169 11.6015 71.3169 9.91591Z" fill="white"/>
<path d="M78.673 10.8573C78.8482 12.1926 80.0084 13.1551 81.8909 13.1551C82.8753 13.1551 84.1669 12.7836 84.7805 12.1488L86.4879 13.8337C85.3496 15.0164 83.4889 15.5856 81.8472 15.5856C78.1265 15.5856 75.9155 13.2871 75.9155 9.8284C75.9155 6.54552 78.1484 4.18066 81.6501 4.18066C85.2621 4.18066 87.5168 6.41349 87.1009 10.8573H78.673ZM84.539 8.64632C84.3639 7.24601 83.27 6.5462 81.737 6.5462C80.2929 6.5462 79.1109 7.24601 78.7168 8.64632H84.539Z" fill="white"/>
<path d="M98.1549 4.50965H100.716V15.301H98.1987L98.0673 13.7242C97.4544 14.9938 95.7695 15.6067 94.5649 15.6286C91.3695 15.6505 89.0054 13.6804 89.0054 9.89333C89.0054 6.17264 91.4783 4.22439 94.6312 4.24628C96.0753 4.24628 97.4544 4.92419 98.0673 5.99751L98.1549 4.50965ZM91.676 9.89401C91.676 11.9517 93.0989 13.1776 94.872 13.1776C99.075 13.1776 99.075 6.63302 94.872 6.63302C93.0989 6.63233 91.676 7.83631 91.676 9.89401Z" fill="white"/>
<path d="M106.014 0V8.84375L109.648 4.50944H112.844V4.66335L108.444 9.58803L113.456 15.1037V15.3014H110.239L106.014 10.4199V15.3014H103.344V0H106.014Z" fill="white"/>
</svg>
