<svg width="184" height="32" viewBox="0 0 184 32" fill="none" xmlns="http://www.w3.org/2000/svg">
<path d="M4.31297 7.2832V16.4064C4.31297 19.0574 5.76279 21.073 8.52097 21.073C11.1731 21.073 12.9765 18.8452 12.9765 16.1942V7.2843H17.2552V24.7517H13.4008L13.1179 22.3825C11.3145 24.1516 9.65253 24.9992 7.2126 24.9992C3.04107 24.9992 0 21.8521 0 16.4418V7.2843L4.31297 7.2832Z" fill="#3B5CA8"/>
<path d="M36.5623 22.4895C34.5467 24.4686 32.425 25.2466 29.8436 25.2466C24.787 25.2466 20.5801 22.2055 20.5801 16.0173C20.5801 9.82903 24.7881 6.78906 29.8436 6.78906C32.3189 6.78906 34.2284 7.49517 36.138 9.36932L33.4151 12.2336C32.3896 11.3153 31.1166 10.8556 29.9144 10.8556C27.0147 10.8556 24.8942 12.9773 24.8942 16.0173C24.8942 19.3412 27.1573 21.1093 29.8436 21.1093C31.2227 21.1093 32.6018 20.7192 33.6627 19.6584L36.5623 22.4895Z" fill="#193B93"/>
<path d="M52.8268 7.28317H56.9641V24.7152H52.8975L52.6854 22.1681C51.6952 24.219 48.9735 25.2091 47.0275 25.2445C41.8648 25.2799 38.0469 22.0973 38.0469 15.9798C38.0469 9.96952 42.0427 6.82236 47.1336 6.85772C49.4675 6.85772 51.6941 7.95281 52.6854 9.68662L52.8268 7.28317ZM42.3598 15.9809C42.3598 19.3049 44.6583 21.2851 47.5215 21.2851C54.3109 21.2851 54.3109 10.7132 47.5215 10.7132C44.6583 10.7121 42.3598 12.657 42.3598 15.9809Z" fill="#193B93"/>
<path d="M73.974 24.7169V15.5937C73.974 12.9416 72.5231 10.926 69.7649 10.926C67.1139 10.926 65.3105 13.1537 65.3105 15.8047V24.7158H61.0317V7.24948H64.8861L65.169 9.61759C66.9371 7.88599 68.704 7.00195 70.8975 7.00195C74.9995 7.00195 78.2881 10.0773 78.2881 15.5583V24.7169H73.974Z" fill="#193B93"/>
<path d="M93.9162 11.9142C92.6785 10.7473 91.2652 10.3583 89.6032 10.3583C87.5522 10.3583 86.4207 10.9949 86.4207 12.0911C86.4207 13.2215 87.4462 13.8591 89.6728 14.0017C92.9614 14.2127 97.134 14.9553 97.134 19.5876C97.134 22.6641 94.6234 25.3162 89.6385 25.3162C86.8804 25.3162 84.1222 24.8565 81.5762 22.2055L83.6979 19.129C84.9355 20.5081 87.7644 21.5336 89.7082 21.5701C91.3348 21.6043 92.8553 20.7568 92.8553 19.4827C92.8553 18.2804 91.8652 17.7864 89.3899 17.6439C86.1013 17.3963 82.1773 16.1941 82.1773 12.2336C82.1773 8.20352 86.3488 6.78906 89.5314 6.78906C92.2542 6.78906 94.3052 7.31837 96.3207 9.08644L93.9162 11.9142Z" fill="#193B93"/>
<path d="M100.6 31.9996V7.28425H104.63L104.913 9.68881C106.257 7.74394 108.591 6.89636 110.571 6.89636C115.945 6.89636 119.516 10.8911 119.516 16.0185C119.516 21.1105 116.299 25.1406 110.712 25.1406C108.874 25.1406 106.151 24.5748 104.913 22.6664V32.0007L100.6 31.9996ZM115.203 16.0174C115.203 13.2946 113.364 11.0679 110.254 11.0679C107.142 11.0679 105.303 13.2957 105.303 16.0174C105.303 18.7391 107.319 20.9669 110.254 20.9669C113.188 20.9669 115.203 18.7402 115.203 16.0174Z" fill="#193B93"/>
<path d="M127.086 17.5371C127.369 19.6942 129.243 21.249 132.284 21.249C133.875 21.249 135.961 20.6489 136.952 19.6235L139.71 22.3452C137.871 24.2558 134.866 25.1752 132.214 25.1752C126.203 25.1752 122.632 21.4623 122.632 15.8752C122.632 10.5721 126.239 6.75195 131.895 6.75195C137.73 6.75195 141.372 10.3588 140.7 17.5371H127.086ZM136.562 13.9657C136.279 11.7036 134.512 10.5732 132.036 10.5732C129.703 10.5732 127.793 11.7036 127.157 13.9657H136.562Z" fill="#193B93"/>
<path d="M158.557 7.28317H162.694V24.7152H158.627L158.415 22.1681C157.425 24.219 154.703 25.2091 152.758 25.2445C147.596 25.2799 143.777 22.0973 143.777 15.9798C143.777 9.96952 147.772 6.82236 152.865 6.85772C155.197 6.85772 157.425 7.95281 158.415 9.68662L158.557 7.28317ZM148.091 15.9809C148.091 19.3049 150.389 21.2851 153.254 21.2851C160.043 21.2851 160.043 10.7132 153.254 10.7132C150.389 10.7121 148.091 12.657 148.091 15.9809Z" fill="#193B93"/>
<path d="M171.253 0V14.286L177.123 7.28444H182.286V7.53307L175.178 15.4883L183.275 24.3982V24.7176H178.078L171.253 16.832V24.7176H166.939V0H171.253Z" fill="#193B93"/>
</svg>
