<svg width="27" height="27" viewBox="0 0 27 27" fill="none" xmlns="http://www.w3.org/2000/svg">
<path d="M20.9614 23.5C20.7625 19.8856 19.6559 17.25 13.4999 17.25C7.34401 17.25 6.23739 19.8856 6.03845 23.5M17.25 9.75C17.25 11.8211 15.5711 13.5 13.5 13.5C11.4289 13.5 9.75 11.8211 9.75 9.75C9.75 7.67893 11.4289 6 13.5 6C15.5711 6 17.25 7.67893 17.25 9.75ZM26 13.5C26 20.4036 20.4036 26 13.5 26C6.59644 26 1 20.4036 1 13.5C1 6.59644 6.59644 1 13.5 1C20.4036 1 26 6.59644 26 13.5Z" stroke="#193B93" stroke-width="2" stroke-linecap="round"/>
</svg>
