<?xml version="1.0" encoding="utf-8"?>
<!-- Generator: Adobe Illustrator 24.3.0, SVG Export Plug-In . SVG Version: 6.00 Build 0)  -->
<svg version="1.1" id="Layer_1" xmlns="http://www.w3.org/2000/svg" xmlns:xlink="http://www.w3.org/1999/xlink" x="0px" y="0px"
	 viewBox="0 0 3608.1 2437.7" style="enable-background:new 0 0 3608.1 2437.7;" xml:space="preserve">
<style type="text/css">
	.st0{opacity:0.5;}
	.st1{fill:#94D3F8;}
</style>
<g class="st0">
	<path class="st1" d="M563.3,1683.2c-76,0-149.8-14.9-219.3-44.3c-67.1-28.4-127.3-69-179.1-120.7c-51.7-51.7-92.3-112-120.7-179.1
		c-29.4-69.5-44.3-143.3-44.3-219.3S14.8,970,44.2,900.5c28.4-67.1,69-127.3,120.7-179.1c51.7-51.7,112-92.3,179.1-120.7
		c69.5-29.4,143.3-44.3,219.3-44.3s149.8,14.9,219.3,44.3c67.1,28.4,127.3,69,179.1,120.7s92.3,112,120.7,179.1
		c29.4,69.5,44.3,143.3,44.3,219.3s-14.9,149.8-44.3,219.3c-28.4,67.1-69,127.3-120.7,179.1c-51.7,51.7-112,92.3-179.1,120.7
		C713.1,1668.3,639.3,1683.2,563.3,1683.2z M563.3,702.6c-111.4,0-216.2,43.4-295,122.2c-78.8,78.8-122.2,183.6-122.2,295
		c0,111.4,43.4,216.2,122.2,295c78.8,78.8,183.6,122.2,295,122.2s216.2-43.4,295-122.2c78.8-78.8,122.2-183.6,122.2-295
		c0-111.4-43.4-216.2-122.2-295C779.5,746,674.7,702.6,563.3,702.6z"/>
</g>
<g class="st0">
	<path class="st1" d="M2228,828c-55.9,0-110.1-11-161.2-32.6c-49.3-20.9-93.6-50.7-131.6-88.7s-67.9-82.3-88.7-131.6
		C1825,524.1,1814,469.9,1814,414s11-110.1,32.6-161.2c20.9-49.3,50.7-93.6,88.7-131.6c38-38,82.3-67.9,131.6-88.7
		C2117.9,11,2172.1,0,2228,0s110.1,11,161.2,32.6c49.3,20.9,93.6,50.7,131.6,88.7c38,38,67.9,82.3,88.7,131.6
		C2631,303.9,2642,358.1,2642,414s-11,110.1-32.6,161.2c-20.9,49.3-50.7,93.6-88.7,131.6s-82.3,67.9-131.6,88.7
		C2338.1,817,2283.9,828,2228,828z M2228,90c-86.5,0-167.9,33.7-229.1,94.9c-61.2,61.2-94.9,142.6-94.9,229.1s33.7,167.9,94.9,229.1
		c61.2,61.2,142.6,94.9,229.1,94.9s167.9-33.7,229.1-94.9c61.2-61.2,94.9-142.6,94.9-229.1s-33.7-167.9-94.9-229.1
		C2395.9,123.7,2314.5,90,2228,90z"/>
</g>
<g class="st0">
	<path class="st1" d="M2902.1,2437.7c-95.3,0-187.7-18.7-274.8-55.5c-84.1-35.6-159.6-86.4-224.4-151.2s-115.7-140.3-151.2-224.4
		c-36.8-87.1-55.5-179.6-55.5-274.8s18.7-187.7,55.5-274.8c35.6-84.1,86.4-159.6,151.2-224.4c64.8-64.8,140.3-115.7,224.4-151.2
		c87.1-36.8,179.6-55.5,274.8-55.5s187.7,18.7,274.8,55.5c84.1,35.6,159.6,86.4,224.4,151.2c64.8,64.8,115.7,140.3,151.2,224.4
		c36.8,87.1,55.5,179.6,55.5,274.8s-18.7,187.7-55.5,274.8c-35.6,84.1-86.4,159.6-151.2,224.4c-64.8,64.8-140.3,115.7-224.4,151.2
		C3089.8,2419,2997.4,2437.7,2902.1,2437.7z M2902.1,1234.5c-67.2,0-132.3,13.1-193.5,39c-59.2,25-112.4,60.9-158.1,106.6
		s-81.6,98.9-106.6,158.1c-25.9,61.2-39,126.3-39,193.5s13.1,132.3,39,193.5c25,59.2,60.9,112.4,106.6,158.1s98.9,81.6,158.1,106.6
		c61.2,25.9,126.3,39,193.5,39s132.3-13.1,193.5-39c59.2-25,112.4-60.9,158.1-106.6s81.6-98.9,106.6-158.1
		c25.9-61.2,39-126.3,39-193.5s-13.1-132.3-39-193.5c-25-59.2-60.9-112.4-106.6-158.1s-98.9-81.6-158.1-106.6
		C3034.4,1247.6,2969.3,1234.5,2902.1,1234.5z"/>
</g>
</svg>
