<svg width="46" height="46" viewBox="0 0 46 46" fill="none" xmlns="http://www.w3.org/2000/svg">
<g clip-path="url(#clip0_660_13284)">
<path d="M34.1295 13.8975L34.1529 13.9365V13.9421L34.1719 13.9741L34.1797 13.9888V13.9969C34.1876 14.0117 34.1906 14.0196 34.1986 14.0367C34.2066 14.0538 34.214 14.0697 34.2209 14.0868C34.2204 14.0891 34.2204 14.0915 34.2209 14.0938C34.2254 14.1029 34.2342 14.1166 34.2342 14.1291C34.2513 14.1813 34.2644 14.2345 34.2732 14.2887C34.2789 14.3229 34.2855 14.3571 34.2855 14.3936C34.2895 14.4877 34.2824 14.582 34.2632 14.6742L30.763 31.3957C30.7367 31.5257 30.687 31.6495 30.616 31.7616C30.5487 31.8672 30.4642 31.9608 30.3654 32.0377C30.1697 32.1901 29.9283 32.2731 29.6802 32.2738C29.4465 32.2736 29.2198 32.1982 29.0319 32.0592L22.642 27.2825L21.0591 30.9041C21.0328 30.9303 21.0094 30.951 20.9878 30.9692L20.9733 30.9807L20.9165 31.0238L20.8697 31.0525L20.9176 31.0227C20.8727 31.0522 20.8254 31.0779 20.7761 31.0993L20.7538 31.1082C20.7283 31.1189 20.7027 31.1279 20.6759 31.1346C20.5938 31.16 20.5077 31.1726 20.4219 31.1722C20.3964 31.1736 20.3716 31.1736 20.3461 31.1722H20.3372H20.3294C20.308 31.1703 20.287 31.1672 20.2659 31.163C20.2844 31.1662 20.3029 31.1687 20.3216 31.17C20.3017 31.1686 20.2821 31.1658 20.2626 31.1619H20.2392H20.2269L20.1935 31.1538L20.2258 31.1608H20.218H20.1946C20.1897 31.1616 20.1839 31.1616 20.179 31.1608C20.1615 31.1574 20.1444 31.1526 20.1278 31.146H20.1166C19.9874 31.1002 19.8706 31.0245 19.7757 30.9255C19.6809 30.8265 19.61 30.7069 19.5697 30.5759L19.1341 25.1569L12.4189 22.8763C12.2624 22.8321 12.1251 22.7377 12.0279 22.6074C11.9393 22.4866 11.8889 22.342 11.8831 22.1923C11.8774 22.0419 11.9167 21.8932 11.9967 21.7658C12.0818 21.6272 12.211 21.5207 12.3632 21.4635L32.8562 13.4813C32.9794 13.4327 33.1104 13.4076 33.2428 13.4073C33.4197 13.4089 33.5938 13.4547 33.7485 13.5403C33.9033 13.6259 34.0342 13.7486 34.1295 13.8975ZM34.1295 13.8975C34.0822 13.8246 34.0257 13.7578 33.9624 13.6982M20.345 31.1961H20.3962M28.4615 42.5502H17.5411C16.9251 42.5502 16.3235 42.5329 15.7542 42.4998C15.185 42.4667 14.6247 42.4156 14.0977 42.3495C13.5707 42.2833 13.0541 42.1965 12.5693 42.095C12.0845 41.9935 11.6117 41.867 11.1679 41.7359C10.7342 41.6029 10.3076 41.4473 9.89018 41.2696C9.49408 41.0999 9.10746 40.9071 8.73386 40.6925C8.37448 40.4865 8.02941 40.2582 7.69896 40.0084C7.37765 39.7626 7.07191 39.4957 6.78549 39.21C6.49934 38.924 6.23347 38.6195 5.98787 38.298C5.73768 37.9679 5.50839 37.6221 5.30276 37.2626C5.08985 36.8893 4.89939 36.5033 4.7324 36.1073C4.5544 35.6901 4.39845 35.264 4.26564 34.8303C4.12875 34.3867 4.00732 33.9181 3.90693 33.4289C3.80655 32.9397 3.72024 32.431 3.65294 31.9008C3.58564 31.3705 3.53797 30.8176 3.50032 30.2451C3.46268 29.6727 3.4502 29.075 3.4502 28.4581V17.542C3.4502 16.9251 3.46838 16.3243 3.50032 15.7552C3.53227 15.1862 3.58564 14.625 3.65294 14.0994C3.72024 13.5737 3.80541 13.0562 3.90693 12.5715C4.00846 12.0869 4.13445 11.6137 4.26564 11.1701C4.3985 10.7364 4.55444 10.31 4.7324 9.89281C4.89945 9.49681 5.08991 9.11115 5.30276 8.73775C5.50845 8.37829 5.73774 8.03249 5.98787 7.7024C6.23348 7.38093 6.49935 7.07612 6.78549 6.7901C7.07166 6.50412 7.37742 6.23752 7.69896 5.99194C8.02941 5.74223 8.37448 5.5136 8.73386 5.30765C9.10746 5.09296 9.49408 4.90046 9.89018 4.73081C10.3076 4.55322 10.7342 4.39734 11.1679 4.26422C11.6117 4.12739 12.08 4.00658 12.5693 3.90509C13.0587 3.80361 13.5684 3.7182 14.0977 3.65092C14.627 3.58364 15.1816 3.5368 15.7542 3.50031C16.3269 3.46382 16.9251 3.4502 17.5411 3.4502H28.4615C29.0787 3.4502 29.6792 3.46724 30.2484 3.50031C30.8176 3.53338 31.3779 3.58478 31.9049 3.65092C32.4319 3.71706 32.9473 3.80361 33.4333 3.90509C33.9192 4.00658 34.3921 4.13309 34.8358 4.26422C35.2692 4.39716 35.6943 4.55304 36.1113 4.73081C36.5079 4.90024 36.8949 5.09274 37.2688 5.30765C37.6279 5.51334 37.9738 5.74198 38.3037 5.99194C38.6254 6.23732 38.93 6.50393 39.216 6.7901C39.5021 7.07615 39.7691 7.38096 40.0147 7.7024C40.2649 8.03249 40.4931 8.37829 40.6987 8.73775C40.9114 9.11124 41.1019 9.49688 41.2691 9.89281C41.4471 10.31 41.603 10.7364 41.7359 11.1701C41.8728 11.6137 41.9942 12.0823 42.0935 12.5715C42.1927 13.0607 42.2812 13.5703 42.3497 14.0994C42.4181 14.6285 42.4636 15.1828 42.5001 15.7552C42.5366 16.3277 42.5502 16.9251 42.5502 17.542V28.4581C42.5502 29.075 42.5331 29.6761 42.5001 30.2451C42.467 30.8142 42.417 31.3751 42.3497 31.9008C42.2824 32.4264 42.1961 32.9442 42.0935 33.4289C41.9908 33.9135 41.8728 34.3867 41.7359 34.8303C41.603 35.264 41.4471 35.6901 41.2691 36.1073C41.1019 36.5033 40.9115 36.8892 40.6987 37.2626C40.4931 37.6221 40.2649 37.9679 40.0147 38.298C39.7691 38.6194 39.5021 38.924 39.216 39.21C38.9301 39.4963 38.6254 39.7632 38.3037 40.0084C37.9738 40.2584 37.6279 40.4868 37.2688 40.6925C36.8949 40.9074 36.5079 41.1002 36.1113 41.2696C35.6944 41.4475 35.2692 41.6031 34.8358 41.7359C34.3921 41.8727 33.9227 41.9935 33.4333 42.095C32.9439 42.1965 32.4342 42.2822 31.9049 42.3495C31.3756 42.4168 30.821 42.4633 30.2484 42.4998C29.6757 42.5363 29.0787 42.5502 28.4615 42.5502Z" stroke="white" stroke-width="2.5"/>
</g>
<defs>
<clipPath id="clip0_660_13284">
<rect width="46" height="46" fill="white"/>
</clipPath>
</defs>
</svg>
