<svg width="1728" height="246" viewBox="0 0 1728 246" fill="none" xmlns="http://www.w3.org/2000/svg">
<g filter="url(#filter0_d_660_12936)">
<path fill-rule="evenodd" clip-rule="evenodd" d="M-216 22C-161.126 42.3558 -94.675 60.9319 -18.7966 77.3504C207.431 126.301 519.512 156.5 863.914 156.5C1208.32 156.5 1520.4 126.301 1746.62 77.3504C1822.5 60.9319 1888.95 42.3558 1943.83 22H1884.73C1842.57 35.1304 1794.99 47.4459 1742.61 58.7802C1518.05 107.369 1207.38 137.5 863.914 137.5C520.446 137.5 209.776 107.369 -14.7784 58.7802C-67.16 47.4459 -114.744 35.1304 -156.898 22H-216Z" fill="#F7F7F7"/>
</g>
<circle cx="864.414" cy="136" r="50" fill="#F7F7F7"/>
<path d="M241.914 117L0.414062 74V243H1728.41V73.5L1521.41 109.5L1263.91 138.5L980.414 148H720.414L536.914 144L241.914 117Z" fill="#F7F7F7" stroke="#F7F7F7" stroke-width="5"/>
<path d="M767.414 144C767.414 144 786.83 142.868 797.784 138.717C812.004 133.329 827.914 113.5 827.914 113.5" stroke="#F7F7F7" stroke-width="14"/>
<path d="M960.414 144C960.414 144 937.948 141.722 928.093 137.62C915.301 132.296 899.414 111.5 899.414 111.5" stroke="#F7F7F7" stroke-width="14"/>
<ellipse cx="864.414" cy="135.5" rx="37" ry="36.5" fill="#193B93"/>
<defs>
<filter id="filter0_d_660_12936" x="-234" y="0" width="2195.83" height="170.5" filterUnits="userSpaceOnUse" color-interpolation-filters="sRGB">
<feFlood flood-opacity="0" result="BackgroundImageFix"/>
<feColorMatrix in="SourceAlpha" type="matrix" values="0 0 0 0 0 0 0 0 0 0 0 0 0 0 0 0 0 0 127 0" result="hardAlpha"/>
<feOffset dy="-4"/>
<feGaussianBlur stdDeviation="9"/>
<feComposite in2="hardAlpha" operator="out"/>
<feColorMatrix type="matrix" values="0 0 0 0 0 0 0 0 0 0 0 0 0 0 0 0 0 0 0.25 0"/>
<feBlend mode="normal" in2="BackgroundImageFix" result="effect1_dropShadow_660_12936"/>
<feBlend mode="normal" in="SourceGraphic" in2="effect1_dropShadow_660_12936" result="shape"/>
</filter>
</defs>
</svg>
