<svg width="1728" height="246" viewBox="0 0 1728 246" fill="none" xmlns="http://www.w3.org/2000/svg">
<g filter="url(#filter0_d_660_13191)">
<path fill-rule="evenodd" clip-rule="evenodd" d="M-216 22C-161.126 42.3558 -94.675 60.9319 -18.7966 77.3504C207.431 126.301 519.512 156.5 863.914 156.5C1208.32 156.5 1520.4 126.301 1746.62 77.3504C1822.5 60.9319 1888.95 42.3558 1943.83 22L1884.73 22C1842.57 35.1304 1794.99 47.4459 1742.61 58.7802C1518.05 107.369 1207.38 137.5 863.914 137.5C520.446 137.5 209.776 107.369 -14.7784 58.7802C-67.16 47.4459 -114.744 35.1304 -156.898 22L-216 22Z" fill="#F7F7F7"/>
</g>
<path d="M241.914 117L0.414063 74L0.414063 243L1728.41 243V73.5L1521.41 109.5L1263.91 138.5L980.414 148L720.414 148L536.914 144L241.914 117Z" fill="#F7F7F7" stroke="#F7F7F7" stroke-width="5"/>
<defs>
<filter id="filter0_d_660_13191" x="-234" y="0" width="2195.83" height="170.5" filterUnits="userSpaceOnUse" color-interpolation-filters="sRGB">
<feFlood flood-opacity="0" result="BackgroundImageFix"/>
<feColorMatrix in="SourceAlpha" type="matrix" values="0 0 0 0 0 0 0 0 0 0 0 0 0 0 0 0 0 0 127 0" result="hardAlpha"/>
<feOffset dy="-4"/>
<feGaussianBlur stdDeviation="9"/>
<feComposite in2="hardAlpha" operator="out"/>
<feColorMatrix type="matrix" values="0 0 0 0 0 0 0 0 0 0 0 0 0 0 0 0 0 0 0.25 0"/>
<feBlend mode="normal" in2="BackgroundImageFix" result="effect1_dropShadow_660_13191"/>
<feBlend mode="normal" in="SourceGraphic" in2="effect1_dropShadow_660_13191" result="shape"/>
</filter>
</defs>
</svg>
