<svg width="1728" height="224" viewBox="0 0 1728 224" fill="none" xmlns="http://www.w3.org/2000/svg">
<path fill-rule="evenodd" clip-rule="evenodd" d="M-216 0C-161.126 20.3558 -94.675 38.9319 -18.7966 55.3504C207.431 104.301 519.512 134.5 863.914 134.5C1208.32 134.5 1520.4 104.301 1746.62 55.3504C1822.5 38.9319 1888.95 20.3558 1943.83 0H1884.73C1842.57 13.1304 1794.99 25.4459 1742.61 36.7802C1518.05 85.369 1207.38 115.5 863.914 115.5C520.446 115.5 209.776 85.369 -14.7784 36.7802C-67.16 25.4459 -114.744 13.1304 -156.898 0H-216Z" fill="#F7F7F7"/>
<path d="M241.914 95L0.414062 52V221H1728.41V51.5L1521.41 87.5L1263.91 116.5L980.414 126H720.414L536.914 122L241.914 95Z" fill="#F7F7F7" stroke="#F7F7F7" stroke-width="5"/>
<circle cx="865" cy="114" r="50" fill="#F7F7F7"/>
<path d="M768 122C768 122 787.416 120.868 798.37 116.717C812.59 111.329 828.5 91.5 828.5 91.5" stroke="#F7F7F7" stroke-width="14"/>
<path d="M961 122C961 122 938.534 119.722 928.679 115.62C915.887 110.296 900 89.5 900 89.5" stroke="#F7F7F7" stroke-width="14"/>
<ellipse cx="865" cy="113.5" rx="37" ry="36.5" fill="#9B51A0"/>
</svg>
