<svg width="40" height="43" viewBox="0 0 40 43" fill="none" xmlns="http://www.w3.org/2000/svg">
<path d="M23.9591 1H16.0409C7.74738 1 1 7.74579 1 16.0377V23.1706C1 29.3456 4.79446 34.8952 10.5 37.1554V41.7795C10.5 42.093 10.6845 42.3765 10.971 42.5031C11.074 42.549 11.1832 42.5712 11.2917 42.5712C11.484 42.5712 11.6748 42.5007 11.8229 42.3662L16.4138 38.2083H23.9591C32.2526 38.2083 39 31.4625 39 23.1706V16.0377C39 7.74579 32.2526 1 23.9591 1ZM37.4167 23.1706C37.4167 30.5893 31.3802 36.625 23.9591 36.625H16.1082C15.9118 36.625 15.7226 36.6978 15.577 36.83L12.0833 39.9943V36.6068C12.0833 36.2711 11.872 35.9719 11.5553 35.861C6.18938 33.9634 2.58333 28.8635 2.58333 23.1706V16.0377C2.58333 8.619 8.62058 2.58333 16.0409 2.58333H23.9591C31.3802 2.58333 37.4167 8.619 37.4167 16.0377V23.1706Z" fill="white" stroke="white" stroke-width="0.5"/>
<path d="M30.4626 25.1404L25.5971 21.98C25.0651 21.6341 24.4317 21.5169 23.8118 21.6452C23.1912 21.7758 22.6576 22.1423 22.3116 22.6767L22.0828 23.0282C19.977 22.3323 17.6551 21.4433 16.2649 17.4192L16.8404 16.9189C17.8284 16.0599 17.9321 14.5574 17.0732 13.5678L13.2668 9.18907C12.9803 8.85894 12.4799 8.8249 12.1498 9.11069L9.75977 11.188C7.66343 13.0104 8.64272 15.7061 8.96493 16.5919C8.97918 16.6315 8.9966 16.6695 9.01718 16.7067C9.10031 16.8556 11.085 20.3975 14.2905 23.6623C17.5086 26.9406 23.3186 29.9679 23.4968 30.0558C24.1602 30.4865 24.9067 30.6931 25.6453 30.6931C26.9421 30.6931 28.2135 30.0574 28.9719 28.8921L30.6962 26.2368C30.9337 25.8687 30.8292 25.3787 30.4626 25.1404ZM27.6435 28.0292C26.9302 29.128 25.4561 29.4399 24.2924 28.6894C24.2346 28.6593 18.4626 25.6534 15.4202 22.554C12.5765 19.6573 10.6884 16.4392 10.4311 15.9903C9.8041 14.232 9.91493 13.1514 10.7984 12.3834L12.5916 10.8254L15.8786 14.6064C16.1707 14.9421 16.1366 15.4329 15.8026 15.7235L14.8312 16.5674C14.5945 16.7732 14.5011 17.0986 14.5937 17.3979C16.2498 22.7796 19.4703 23.8365 21.8216 24.6084L22.1644 24.7216C22.5072 24.8372 22.8824 24.7049 23.0788 24.4025L23.6401 23.538C23.7556 23.3591 23.933 23.238 24.1388 23.1944C24.3454 23.1501 24.556 23.1913 24.7349 23.3077L28.9371 26.0365L27.6435 28.0292Z" fill="white" stroke="white" stroke-width="0.5"/>
<path d="M21.8072 13.8621C21.3861 13.7409 20.9483 13.9856 20.8287 14.4067C20.7092 14.8271 20.953 15.2649 21.3734 15.3844C22.553 15.7201 23.4927 16.6614 23.8252 17.8418C23.9233 18.1901 24.2408 18.4189 24.5868 18.4189C24.658 18.4189 24.7301 18.4094 24.8021 18.3896C25.2225 18.2708 25.4679 17.8339 25.3491 17.4127C24.8686 15.7074 23.5109 14.3466 21.8072 13.8621Z" fill="white"/>
<path d="M27.8315 18.5899C27.9028 18.5899 27.9748 18.5804 28.0469 18.5606C28.468 18.4419 28.7127 18.0041 28.5939 17.5837C27.6597 14.2722 25.0243 11.6312 21.7151 10.6891C21.2947 10.568 20.857 10.8142 20.7374 11.2345C20.6179 11.6549 20.8617 12.0927 21.2821 12.2123C24.0664 13.0039 26.2838 15.2277 27.07 18.0136C27.1689 18.3619 27.4856 18.5899 27.8315 18.5899Z" fill="white"/>
<path d="M21.3741 7.00268C20.953 6.88155 20.5152 7.12618 20.3956 7.54814C20.2761 7.96851 20.5199 8.4063 20.9403 8.52585C25.6578 9.86772 29.4159 13.6345 30.7475 18.3552C30.8456 18.7035 31.1631 18.9323 31.509 18.9323C31.5803 18.9323 31.6523 18.9228 31.7244 18.903C32.1447 18.7843 32.3902 18.3465 32.2714 17.9261C30.7918 12.6797 26.6165 8.49497 21.3741 7.00268Z" fill="white"/>
</svg>
