<svg width="46" height="46" viewBox="0 0 46 46" fill="none" xmlns="http://www.w3.org/2000/svg">
<g clip-path="url(#clip0_660_13278)">
<path d="M4.48073 43C4.29053 42.9948 4.10305 42.9534 3.92833 42.8781C3.7442 42.81 3.57754 42.7017 3.44054 42.561C3.25707 42.3783 3.12357 42.1517 3.05277 41.9027C2.98241 41.6489 2.98241 41.3807 3.05277 41.127L5.52078 31.901C3.13889 27.4587 2.43567 22.3075 3.53952 17.3893C4.64338 12.471 7.48069 8.11441 11.5326 5.11611C15.5844 2.11781 20.5801 0.678255 25.6061 1.06044C30.6322 1.44263 35.3529 3.62104 38.9048 7.19753C42.4567 10.774 44.6026 15.5095 44.9501 20.5381C45.2975 25.5667 43.8234 30.5523 40.7972 34.5834C37.771 38.6144 33.3949 41.4216 28.4692 42.4915C23.5435 43.5614 18.3971 42.8226 13.9714 40.4101L4.8746 42.9366C4.74673 42.9752 4.61427 42.9966 4.48073 43ZM14.1775 37.3701C14.4356 37.3837 14.6878 37.4518 14.9177 37.57C18.7238 39.8125 23.2162 40.5926 27.5555 39.7647C31.8949 38.9367 35.7845 36.5573 38.4975 33.0709C41.2105 29.5844 42.5616 25.2295 42.2981 20.8197C42.0346 16.41 40.1746 12.2469 37.0657 9.10837C33.9568 5.96984 29.8115 4.07046 25.4044 3.76512C20.9973 3.45978 16.6297 4.76943 13.1177 7.44925C9.60568 10.1291 7.18955 13.9957 6.32042 18.327C5.45129 22.6583 6.1887 27.158 8.395 30.9853C8.5905 31.3231 8.64526 31.7242 8.54743 32.1021L6.5964 39.4186L13.8006 37.4213C13.9231 37.3861 14.0501 37.3688 14.1775 37.3701Z" fill="white"/>
<path d="M29.5348 30.8035C28.5185 30.8548 27.5022 30.7019 26.5459 30.354C25.4109 29.9546 24.3247 29.4287 23.3073 28.7866C22.956 28.5595 22.6059 28.3336 22.2655 28.0927L20.6446 26.8403C20.5874 26.8099 20.5333 26.7736 20.4838 26.7319V26.7319C20.3783 26.6397 20.2704 26.5581 20.1644 26.4667C19.1866 25.6128 18.2751 24.686 17.4372 23.6944C16.6684 22.7867 16.0008 21.7978 15.4464 20.7454C14.9796 19.8408 14.692 18.8545 14.5998 17.8407C14.5549 17.2455 14.6232 16.6471 14.8011 16.0773C14.9931 15.4886 15.3128 14.9496 15.7369 14.4983C15.9589 14.2224 16.2335 13.9935 16.5451 13.8251C16.8575 13.6577 17.2 13.5539 17.5528 13.5199C17.806 13.4993 18.0604 13.537 18.2967 13.6302C18.5492 13.7226 18.7719 13.8822 18.9401 14.0918L21.2389 16.8916C21.3984 17.0758 21.5348 17.2791 21.6439 17.4969C21.7356 17.665 21.793 17.8497 21.8124 18.0402C21.8235 18.2666 21.7726 18.4919 21.6664 18.6921C21.5432 18.9357 21.3893 19.1622 21.2078 19.3661L20.5729 20.1267C20.528 20.1772 20.4931 20.2357 20.47 20.2992C20.4508 20.3639 20.4445 20.4318 20.451 20.499C20.4538 20.5687 20.4681 20.6374 20.4933 20.7024C20.5246 20.7763 20.559 20.8279 20.5777 20.8799C20.8501 21.273 21.1581 21.6402 21.4978 21.9768C21.9387 22.4143 22.4061 22.8629 22.9082 23.3091C22.9817 23.3736 23.0605 23.437 23.1352 23.5001L25.0006 24.9215C25.2111 25.0559 25.4301 25.1762 25.6566 25.2814C25.7111 25.2977 25.7648 25.3219 25.8301 25.3434C25.9041 25.3642 25.9812 25.371 26.0578 25.3632C26.1269 25.361 26.1944 25.3431 26.2556 25.3108C26.3185 25.2819 26.3743 25.2388 26.4177 25.1848L27.057 24.4598C27.2334 24.2471 27.4396 24.061 27.669 23.9071C27.853 23.7713 28.0717 23.6905 28.2998 23.674C28.4902 23.6626 28.6813 23.6889 28.8614 23.7515C29.0897 23.8302 29.3085 23.9336 29.5144 24.0596L32.6575 25.9676C32.8831 26.0949 33.0682 26.283 33.1922 26.5104C33.3027 26.7256 33.3686 26.9609 33.3865 27.2021C33.4057 27.4645 33.3767 27.7282 33.3008 27.98C33.2851 28.0566 33.2606 28.1311 33.2274 28.2019C33.0935 28.5487 32.9094 28.8741 32.6813 29.1677C32.306 29.6566 31.8263 30.0551 31.2766 30.3339C31.2662 30.3346 31.2565 30.3432 31.2461 30.3439C30.718 30.6032 30.1449 30.7578 29.558 30.7992L29.5348 30.8035Z" stroke="white" stroke-width="2"/>
</g>
<defs>
<clipPath id="clip0_660_13278">
<rect width="46" height="46" fill="white"/>
</clipPath>
</defs>
</svg>
